<?xml version="1.0" encoding="UTF-8"?>
<svg id="Layer_1" xmlns="http://www.w3.org/2000/svg" version="1.1" xmlns:xlink="http://www.w3.org/1999/xlink" viewBox="0 0 1472 832">
  <!-- Generator: Adobe Illustrator 29.3.1, SVG Export Plug-In . SVG Version: 2.1.0 Build 151)  -->
  <defs>
    <style>
      .st0 {
        stroke-miterlimit: 3.9;
        stroke-width: 14.5px;
      }

      .st0, .st1, .st2, .st3 {
        fill: none;
        stroke: #091347;
      }

      .st1 {
        stroke-miterlimit: 3.6;
        stroke-width: 9.9px;
      }

      .st4 {
        fill: #fed65d;
      }

      .st2 {
        stroke-miterlimit: 5.8;
        stroke-width: 19px;
      }

      .st3 {
        stroke-miterlimit: 4.8;
        stroke-width: 15.9px;
      }
    </style>
  </defs>
  <path class="st2" d="M568.5,483v64.2h-35.4v-163.6h73.8v30.6h-38.5v39.1h35.9v29.6h-35.9Z"/>
  <path class="st2" d="M719.4,414.4v101.9c0,22.3-10.5,33.4-31.4,33.4h-33.6c-20.9,0-31.4-11.1-31.4-33.4v-101.9c0-22.3,10.5-33.4,31.4-33.4h33.6c20.9,0,31.4,11.1,31.4,33.4ZM684,520.4v-110.3c0-1.4-.5-2.5-1.4-3.5-.9-1-2-1.5-3.4-1.5h-15.9c-1.4,0-2.5.5-3.5,1.5-.9,1-1.4,2.2-1.4,3.5v110.3c0,1.4.4,2.6,1.4,3.6.9,1,2.1,1.5,3.5,1.5h15.9c1.4,0,2.5-.5,3.4-1.5.9-1,1.4-2.2,1.4-3.6Z"/>
  <path class="st2" d="M837.3,414.4v101.9c0,22.3-10.5,33.4-31.4,33.4h-33.6c-20.9,0-31.4-11.1-31.4-33.4v-101.9c0-22.3,10.5-33.4,31.4-33.4h33.6c20.9,0,31.4,11.1,31.4,33.4ZM801.9,520.4v-110.3c0-1.4-.5-2.5-1.4-3.5-.9-1-2-1.5-3.4-1.5h-15.9c-1.4,0-2.5.5-3.5,1.5-.9,1-1.4,2.2-1.4,3.5v110.3c0,1.4.5,2.6,1.4,3.6.9,1,2.1,1.5,3.5,1.5h15.9c1.4,0,2.5-.5,3.4-1.5.9-1,1.4-2.2,1.4-3.6Z"/>
  <path class="st2" d="M923.7,383.6c20.9,0,31.4,11.1,31.4,33.4v96.8c0,22.3-10.5,33.4-31.4,33.4h-65v-163.6h65ZM919.7,517.9v-105.2c0-1.4-.5-2.5-1.4-3.5-.9-1-2-1.5-3.4-1.5h-20.7v115.3h20.7c1.4,0,2.5-.5,3.4-1.5.9-1,1.4-2.2,1.4-3.6Z"/>
  <path class="st4" d="M568.5,483v64.2h-35.4v-163.6h73.9v30.6h-38.5v39.2h35.9v29.6h-35.9Z"/>
  <path class="st4" d="M719.4,414.4v101.9c0,22.3-10.5,33.4-31.4,33.4h-33.6c-20.9,0-31.4-11.1-31.4-33.4v-101.9c0-22.3,10.4-33.4,31.4-33.4h33.6c20.9,0,31.4,11.1,31.4,33.4ZM684,520.4v-110.3c0-1.3-.5-2.5-1.4-3.5-.9-1-2.1-1.5-3.4-1.5h-15.9c-1.3,0-2.5.5-3.4,1.5-.9,1-1.4,2.2-1.4,3.5v110.3c0,1.3.5,2.5,1.4,3.5.9,1,2.1,1.5,3.4,1.5h15.9c1.3,0,2.5-.5,3.4-1.5.9-1,1.4-2.2,1.4-3.5Z"/>
  <path class="st4" d="M837.3,414.4v101.9c0,22.3-10.5,33.4-31.4,33.4h-33.6c-20.9,0-31.4-11.1-31.4-33.4v-101.9c0-22.3,10.4-33.4,31.4-33.4h33.6c20.9,0,31.4,11.1,31.4,33.4ZM801.9,520.4v-110.3c0-1.3-.5-2.5-1.4-3.5-.9-1-2.1-1.5-3.4-1.5h-15.9c-1.3,0-2.5.5-3.4,1.5-.9,1-1.4,2.2-1.4,3.5v110.3c0,1.3.5,2.5,1.4,3.5.9,1,2.1,1.5,3.4,1.5h15.9c1.3,0,2.5-.5,3.4-1.5.9-1,1.4-2.2,1.4-3.5Z"/>
  <path class="st4" d="M923.8,383.6c20.9,0,31.4,11.1,31.4,33.4v96.9c0,22.3-10.5,33.4-31.4,33.4h-65v-163.6h65ZM919.7,517.9v-105.2c0-1.3-.5-2.5-1.4-3.5-.9-1-2.1-1.5-3.4-1.5h-20.8v115.3h20.8c1.3,0,2.5-.5,3.4-1.5.9-1,1.4-2.2,1.4-3.5Z"/>
  <path class="st3" d="M560.7,657.1v53.8h-29.6v-137.1h61.9v25.7h-32.2v32.8h30.1v24.8h-30.1Z"/>
  <path class="st3" d="M687.1,599.7v85.3c0,18.7-8.8,28-26.3,28h-28.1c-17.5,0-26.3-9.3-26.3-28v-85.3c0-18.7,8.8-28,26.3-28h28.1c17.5,0,26.3,9.3,26.3,28ZM657.5,688.5v-92.4c0-1.1-.4-2.1-1.2-2.9-.8-.9-1.7-1.3-2.8-1.3h-13.3c-1.1,0-2.1.4-2.9,1.3-.8.8-1.1,1.8-1.1,2.9v92.4c0,1.1.4,2.1,1.1,3,.8.8,1.8,1.2,2.9,1.2h13.3c1.1,0,2.1-.4,2.8-1.2.8-.9,1.2-1.9,1.2-3Z"/>
  <path class="st3" d="M734.8,654.8v56.1h-29.6v-137.1h52.8c17.5,0,26.3,9.3,26.3,28v15.9c0,11.3-4,18.5-12.1,21.6,7.1,2.5,10.6,8.3,10.6,17.3v54.3h-29.7v-51.9c0-2.8-1.3-4.2-4-4.2h-14.2ZM734.8,594v40h15.7c1.1,0,2.1-.4,2.8-1.2.8-.9,1.2-1.9,1.2-3v-31.6c0-1.1-.4-2.1-1.2-2.9-.8-.9-1.7-1.3-2.8-1.3h-15.7Z"/>
  <path class="st3" d="M850.5,688.5v-21.2h28.2v17.8c0,18.7-8.8,28-26.3,28h-26.7c-17.5,0-26.3-9.3-26.3-28v-85.3c0-18.7,8.8-28,26.3-28h26.7c17.5,0,26.3,9.3,26.3,28v12.9h-28.2v-16.5c0-1.1-.4-2.1-1.2-2.9-.8-.9-1.7-1.3-2.8-1.3h-13.3c-1.1,0-2.1.4-2.9,1.3-.8.8-1.1,1.8-1.1,2.9v92.4c0,1.1.4,2.1,1.1,3,.8.8,1.8,1.2,2.9,1.2h13.3c1.1,0,2.1-.4,2.8-1.2.8-.9,1.2-1.9,1.2-3Z"/>
  <path class="st3" d="M922.3,686.4h32.8v24.6h-62.5v-137.1h62.5v24.2h-32.8v32.2h30.7v23.3h-30.7v32.8Z"/>
  <path class="st4" d="M560.7,657.1v53.8h-29.7v-137.1h61.9v25.6h-32.2v32.8h30.1v24.8h-30.1Z"/>
  <path class="st4" d="M687.1,599.7v85.4c0,18.6-8.8,28-26.3,28h-28.2c-17.5,0-26.3-9.3-26.3-28v-85.4c0-18.6,8.8-28,26.3-28h28.2c17.5,0,26.3,9.3,26.3,28ZM657.5,688.5v-92.4c0-1.1-.4-2.1-1.2-3-.8-.8-1.7-1.3-2.9-1.3h-13.4c-1.1,0-2.1.4-2.9,1.3-.8.8-1.2,1.8-1.2,3v92.4c0,1.1.4,2.1,1.2,3,.8.8,1.7,1.3,2.9,1.3h13.4c1.1,0,2.1-.4,2.9-1.3.8-.8,1.2-1.8,1.2-3Z"/>
  <path class="st4" d="M734.8,654.8v56.1h-29.7v-137.1h52.8c17.5,0,26.3,9.3,26.3,28v15.9c0,11.3-4,18.5-12.1,21.6,7.1,2.5,10.6,8.3,10.6,17.4v54.2h-29.7v-51.9c0-2.8-1.3-4.3-4-4.3h-14.2ZM734.8,594v40h15.7c1.1,0,2.1-.4,2.9-1.3.8-.8,1.2-1.8,1.2-3v-31.6c0-1.1-.4-2.1-1.2-3-.8-.8-1.7-1.3-2.9-1.3h-15.7Z"/>
  <path class="st4" d="M850.5,688.5v-21.2h28.2v17.8c0,18.6-8.8,28-26.3,28h-26.7c-17.5,0-26.3-9.3-26.3-28v-85.4c0-18.6,8.8-28,26.3-28h26.7c17.5,0,26.3,9.3,26.3,28v12.9h-28.2v-16.5c0-1.1-.4-2.1-1.2-3-.8-.8-1.7-1.3-2.9-1.3h-13.4c-1.1,0-2.1.4-2.9,1.3-.8.8-1.2,1.8-1.2,3v92.4c0,1.1.4,2.1,1.2,3,.8.8,1.7,1.3,2.9,1.3h13.4c1.1,0,2.1-.4,2.9-1.3.8-.8,1.2-1.8,1.2-3Z"/>
  <path class="st4" d="M922.3,686.4h32.8v24.6h-62.5v-137.1h62.5v24.1h-32.8v32.2h30.7v23.3h-30.7v32.9Z"/>
  <path class="st0" d="M631.1,222.8c0,7.5-1.4,14.5-4.1,20.9-2.7,6.5-6.5,12.1-11.3,16.8l7.9,9.7-10.5,6.3-7-8.5c-3.9,2.4-8.1,4.2-12.7,5.5-4.6,1.3-9.4,1.9-14.4,1.9s-11.4-.9-16.6-2.6-10-4.2-14.4-7.4c-4.3-3.2-8.1-7-11.2-11.4-3.2-4.4-5.6-9.2-7.3-14.5-1.7-5.3-2.6-10.9-2.6-16.8s.9-11.5,2.6-16.8c1.7-5.3,4.2-10.1,7.3-14.5,3.2-4.4,6.9-8.2,11.2-11.4,4.3-3.2,9.1-5.7,14.4-7.4,5.2-1.7,10.8-2.6,16.6-2.6s11.4.9,16.7,2.6c5.2,1.7,10,4.2,14.4,7.4,4.3,3.2,8.1,7,11.3,11.4,3.2,4.4,5.6,9.2,7.4,14.5,1.7,5.3,2.6,10.9,2.6,16.8ZM578.9,262.9c3.5,0,6.8-.4,9.9-1.3,3.2-.9,6.2-2.1,9-3.7l-11-13.5,10.1-7,10.4,12.7c3.2-3.5,5.7-7.7,7.5-12.4,1.8-4.7,2.7-9.7,2.7-15.1s-1-10.9-3-15.8c-2-4.9-4.7-9.1-8.2-12.8s-7.6-6.5-12.3-8.5c-4.7-2-9.7-3.1-15.1-3.1s-10.4,1-15,3.1c-4.6,2-8.7,4.9-12.2,8.5-3.5,3.7-6.2,7.9-8.2,12.8-2,4.9-3,10.1-3,15.8s1,10.9,3,15.8c2,4.9,4.7,9.1,8.2,12.8,3.5,3.7,7.6,6.5,12.2,8.5,4.6,2,9.7,3.1,15,3.1Z"/>
  <path class="st0" d="M688,275.1c-5.9,0-11.4-1-16.4-3.1-5-2-9.3-4.9-13-8.5-3.7-3.7-6.5-8-8.5-12.9-2-5-3-10.4-3-16.3v-61.7h13.6v61.5c0,4.1.7,7.9,2.1,11.3,1.4,3.5,3.3,6.5,5.8,9.1,2.5,2.6,5.4,4.6,8.7,6,3.3,1.4,6.9,2.1,10.8,2.1s7.5-.7,10.8-2.1c3.3-1.4,6.2-3.4,8.7-6,2.5-2.6,4.4-5.6,5.7-9.1,1.4-3.5,2-7.3,2-11.4v-61.3h13.6v61.7c0,5.9-1,11.3-3.1,16.3-2,5-4.9,9.3-8.5,12.9-3.7,3.7-8,6.5-13,8.5-5,2-10.4,3.1-16.4,3.1Z"/>
  <path class="st0" d="M750,172.7h13.7v100.3h-13.7v-100.3Z"/>
  <path class="st0" d="M832.9,275.5c-5.7,0-11.2-.9-16.4-2.6-5.2-1.7-9.9-4.2-14.2-7.3-4.3-3.2-8-6.9-11.1-11.3-3.1-4.4-5.5-9.2-7.2-14.5-1.7-5.3-2.6-10.9-2.6-16.9s.9-11.7,2.6-17c1.7-5.3,4.1-10.2,7.3-14.5,3.1-4.4,6.8-8.1,11.1-11.3,4.3-3.2,9.1-5.6,14.3-7.3,5.2-1.7,10.8-2.6,16.6-2.6s6.3.4,9.6,1.1,6.6,1.8,9.7,3.1c3.1,1.3,5.9,2.8,8.4,4.5v13.7c-2.1-1.8-4.7-3.4-7.8-4.9-3-1.5-6.2-2.7-9.6-3.5-3.4-.9-6.7-1.3-10-1.3-5.4,0-10.5,1-15.2,3-4.7,2-8.8,4.8-12.2,8.5-3.5,3.6-6.2,7.9-8.1,12.8-1.9,4.9-2.9,10.2-2.9,15.9s1,11,2.9,15.9c1.9,4.9,4.7,9.1,8.2,12.7,3.5,3.6,7.6,6.4,12.3,8.4,4.7,2,9.7,3,15.2,3s6.6-.5,10.1-1.4c3.5-.9,6.8-2.2,9.9-3.8,3.1-1.6,5.8-3.4,8-5.4l-.3,14.3c-2.5,1.7-5.4,3.2-8.6,4.5-3.2,1.3-6.5,2.4-9.9,3.1-3.4.8-6.7,1.2-10,1.2Z"/>
  <path class="st0" d="M907,220.9l47.6,52.2h-17.3l-42.5-46.8h-.7v46.8h-13.6v-100.3h13.6v44.2h.6l39.3-44.2h16l-43,48.2Z"/>
  <path class="st4" d="M631.1,222.8c0,7.5-1.4,14.5-4.1,20.9-2.7,6.5-6.5,12.1-11.3,16.9l7.9,9.7-10.5,6.3-7-8.5c-3.9,2.4-8.1,4.2-12.8,5.5-4.6,1.3-9.4,1.9-14.4,1.9s-11.3-.9-16.6-2.6c-5.2-1.7-10-4.2-14.4-7.4-4.3-3.2-8.1-7-11.2-11.4-3.2-4.4-5.6-9.2-7.3-14.5-1.7-5.3-2.6-10.9-2.6-16.8s.9-11.5,2.6-16.8c1.7-5.3,4.2-10.1,7.3-14.5,3.2-4.4,6.9-8.2,11.2-11.4,4.3-3.2,9.1-5.7,14.4-7.4,5.2-1.7,10.8-2.6,16.6-2.6s11.4.9,16.6,2.6c5.2,1.7,10,4.2,14.4,7.4,4.3,3.2,8.1,7,11.3,11.4,3.2,4.4,5.6,9.2,7.4,14.5,1.7,5.3,2.6,10.9,2.6,16.8ZM578.9,262.9c3.5,0,6.8-.4,9.9-1.3,3.2-.8,6.2-2.1,9-3.7l-11-13.5,10.1-7,10.4,12.8c3.2-3.5,5.7-7.7,7.5-12.4,1.8-4.7,2.7-9.7,2.7-15.1s-1-10.9-3-15.8c-2-4.9-4.7-9.1-8.3-12.8-3.5-3.7-7.6-6.5-12.3-8.5-4.7-2-9.7-3.1-15.1-3.1s-10.4,1-15,3.1c-4.6,2-8.7,4.9-12.2,8.5-3.5,3.7-6.2,7.9-8.2,12.8-2,4.9-2.9,10.1-2.9,15.8s1,10.9,2.9,15.8c2,4.9,4.7,9.1,8.2,12.8,3.5,3.7,7.6,6.5,12.2,8.5,4.6,2,9.7,3,15,3Z"/>
  <path class="st4" d="M688,275.1c-5.9,0-11.4-1-16.4-3-5-2-9.3-4.9-13-8.5-3.7-3.7-6.5-8-8.5-13-2-5-3-10.4-3-16.3v-61.7h13.6v61.5c0,4.1.7,7.8,2.1,11.3,1.4,3.5,3.3,6.5,5.8,9.1,2.5,2.6,5.4,4.6,8.7,6,3.3,1.4,6.9,2.1,10.8,2.1s7.5-.7,10.8-2.1c3.3-1.4,6.2-3.4,8.7-6,2.5-2.6,4.4-5.6,5.8-9.1,1.4-3.5,2-7.3,2-11.4v-61.3h13.6v61.7c0,5.9-1,11.3-3.1,16.3-2,5-4.9,9.3-8.5,13-3.7,3.7-8,6.5-13,8.5-5,2-10.4,3-16.3,3Z"/>
  <path class="st4" d="M750,273v-100.3h13.7v100.3h-13.7Z"/>
  <path class="st4" d="M832.9,275.5c-5.7,0-11.2-.9-16.4-2.6s-9.9-4.1-14.2-7.3c-4.3-3.2-8-6.9-11.1-11.3-3.1-4.4-5.5-9.2-7.2-14.5-1.7-5.3-2.6-11-2.6-17s.9-11.7,2.6-17c1.7-5.3,4.1-10.2,7.3-14.5,3.1-4.4,6.9-8.1,11.1-11.3,4.3-3.2,9-5.6,14.3-7.3,5.2-1.7,10.8-2.6,16.6-2.6s6.3.4,9.6,1.1c3.3.7,6.6,1.8,9.7,3,3.1,1.3,5.9,2.8,8.4,4.5v13.7c-2.2-1.8-4.8-3.4-7.8-4.9-3-1.5-6.3-2.7-9.6-3.5s-6.7-1.3-10-1.3c-5.4,0-10.5,1-15.2,3-4.7,2-8.8,4.8-12.3,8.5-3.5,3.6-6.2,7.9-8.1,12.8-1.9,4.9-2.9,10.2-2.9,15.9s1,11,2.9,15.9c2,4.9,4.7,9.1,8.2,12.7,3.5,3.6,7.6,6.4,12.3,8.4,4.7,2,9.7,3,15.2,3s6.6-.5,10.1-1.4c3.5-.9,6.8-2.2,9.9-3.8,3.1-1.6,5.8-3.4,8-5.4l-.3,14.3c-2.5,1.7-5.4,3.2-8.6,4.5-3.2,1.3-6.5,2.3-10,3.1-3.4.8-6.7,1.2-10,1.2Z"/>
  <path class="st4" d="M907,220.9l47.6,52.1h-17.3l-42.5-46.8h-.7v46.8h-13.6v-100.3h13.6v44.2h.6l39.3-44.2h16l-43,48.1Z"/>
  <path class="st1" d="M567.9,360.7h-9.1l-16.7-26.1h-6.4v26.1h-8.3v-61.2h17.5c3.9,0,7.3.7,10.2,2.2,2.9,1.5,5.2,3.6,6.8,6.3,1.6,2.7,2.4,5.9,2.4,9.6s-.6,5.7-1.7,8c-1.1,2.3-2.7,4.1-4.8,5.5-2.1,1.4-4.5,2.4-7.4,3l17.3,26.7ZM535.8,306.6v21.2h9.1c2.3,0,4.4-.4,6.1-1.2,1.7-.8,3.1-2,4.1-3.5,1-1.6,1.5-3.4,1.5-5.7s-.5-4.2-1.5-5.8c-1-1.6-2.4-2.8-4.1-3.7-1.7-.9-3.8-1.3-6.2-1.3h-9Z"/>
  <path class="st1" d="M581.1,360.7v-61.2h33.4v7.5h-25.1v18.7h22.8v7h-22.8v20.6h25.5v7.5h-33.8Z"/>
  <path class="st1" d="M672.6,360.7l-6.3-15h-25l-6.3,15h-9.1l26.6-61.4h2.7l26.7,61.4h-9.2ZM644.1,338.9h19.3l-9.7-22.9-9.7,22.9Z"/>
  <path class="st1" d="M723.9,362.2c-3.5,0-6.8-.5-10-1.6-3.2-1-6-2.5-8.6-4.5-2.6-1.9-4.9-4.2-6.8-6.9-1.9-2.7-3.4-5.6-4.4-8.8-1-3.2-1.6-6.7-1.6-10.3s.5-7.1,1.6-10.4c1-3.2,2.5-6.2,4.4-8.9,1.9-2.7,4.2-5,6.8-6.9,2.6-1.9,5.5-3.4,8.7-4.5,3.2-1.1,6.6-1.6,10.1-1.6s3.8.2,5.9.7,4,1.1,5.9,1.9c1.9.8,3.6,1.7,5.1,2.7v8.3c-1.3-1.1-2.9-2.1-4.7-3-1.9-.9-3.8-1.6-5.9-2.2-2.1-.5-4.1-.8-6.1-.8-3.3,0-6.4.6-9.3,1.8s-5.4,3-7.5,5.2-3.8,4.8-5,7.8c-1.2,3-1.8,6.2-1.8,9.7s.6,6.7,1.8,9.7c1.2,3,2.9,5.6,5,7.8,2.1,2.2,4.6,3.9,7.5,5.2,2.9,1.2,5.9,1.8,9.3,1.8s4-.3,6.2-.8c2.1-.6,4.1-1.3,6.1-2.3,1.9-1,3.5-2.1,4.9-3.3l-.2,8.7c-1.5,1-3.3,2-5.3,2.8-2,.8-4,1.4-6.1,1.9-2.1.5-4.1.7-6.1.7Z"/>
  <path class="st1" d="M768.8,360.7v-53.7h-17.1v-7.5h42.3v7.5h-17v53.7h-8.3Z"/>
  <path class="st1" d="M806.8,299.4h8.3v61.2h-8.3v-61.2Z"/>
  <path class="st1" d="M862,362.2c-3.6,0-6.9-.5-10.1-1.6-3.2-1.1-6.1-2.6-8.8-4.5-2.6-2-4.9-4.3-6.9-6.9-1.9-2.7-3.4-5.6-4.5-8.9-1.1-3.2-1.6-6.7-1.6-10.3s.5-7,1.6-10.3c1.1-3.2,2.5-6.2,4.5-8.9,1.9-2.7,4.2-5,6.9-6.9,2.7-2,5.6-3.5,8.8-4.5,3.2-1.1,6.6-1.6,10.1-1.6s7,.5,10.2,1.6c3.2,1.1,6.1,2.6,8.8,4.5,2.7,2,4.9,4.3,6.9,6.9,1.9,2.7,3.4,5.6,4.5,8.9,1.1,3.2,1.6,6.7,1.6,10.3s-.5,7-1.6,10.3c-1.1,3.2-2.6,6.2-4.5,8.9-1.9,2.7-4.2,5-6.9,6.9-2.6,2-5.6,3.5-8.8,4.5-3.2,1.1-6.6,1.6-10.2,1.6ZM862,354.5c3.3,0,6.4-.6,9.2-1.9,2.9-1.2,5.4-3,7.5-5.2,2.2-2.2,3.8-4.8,5-7.8,1.2-3,1.8-6.2,1.8-9.6s-.6-6.7-1.8-9.6c-1.2-3-2.9-5.6-5-7.8-2.2-2.2-4.7-4-7.5-5.2-2.9-1.2-5.9-1.9-9.2-1.9s-6.3.6-9.2,1.9c-2.8,1.2-5.3,3-7.5,5.2-2.1,2.2-3.8,4.8-5,7.8-1.2,3-1.8,6.2-1.8,9.6s.6,6.7,1.8,9.6c1.2,3,2.9,5.6,5,7.8,2.1,2.2,4.6,4,7.5,5.2,2.8,1.2,5.9,1.9,9.2,1.9Z"/>
  <path class="st1" d="M953.5,299.4h8.3v63h-2.3l-42.2-45.3v43.5s-8.3,0-8.3,0v-62.7h2.3l42.1,45.8v-44.4Z"/>
  <path class="st4" d="M567.9,360.7h-9.1l-16.7-26.1h-6.4v26.1h-8.3v-61.2h17.5c3.9,0,7.3.7,10.3,2.2,2.9,1.5,5.2,3.6,6.8,6.3s2.4,5.9,2.4,9.6-.6,5.7-1.7,8c-1.1,2.3-2.7,4.1-4.8,5.5-2.1,1.4-4.5,2.4-7.4,3l17.3,26.7ZM535.8,306.6v21.2h9.1c2.3,0,4.4-.4,6.1-1.3,1.8-.8,3.1-2,4.1-3.5,1-1.6,1.5-3.5,1.5-5.7s-.5-4.2-1.5-5.8c-1-1.6-2.4-2.8-4.1-3.7-1.8-.9-3.8-1.3-6.2-1.3h-9Z"/>
  <path class="st4" d="M581.1,360.7v-61.2h33.4v7.5h-25.1v18.7h22.8v7h-22.8v20.6h25.5v7.5h-33.8Z"/>
  <path class="st4" d="M672.6,360.7l-6.3-15h-25l-6.3,15h-9.1l26.6-61.4h2.7l26.7,61.4h-9.2ZM644.1,338.9h19.3l-9.7-22.9-9.6,22.9Z"/>
  <path class="st4" d="M723.9,362.2c-3.5,0-6.8-.5-10-1.6-3.2-1-6-2.5-8.6-4.5-2.6-1.9-4.9-4.2-6.8-6.9-1.9-2.7-3.4-5.6-4.4-8.9-1-3.2-1.6-6.7-1.6-10.4s.5-7.1,1.6-10.4,2.5-6.2,4.4-8.9c1.9-2.7,4.2-5,6.8-6.9,2.6-1.9,5.5-3.4,8.7-4.5,3.2-1.1,6.6-1.6,10.1-1.6s3.8.2,5.9.7c2,.4,4,1.1,5.9,1.9,1.9.8,3.6,1.7,5.1,2.8v8.3c-1.3-1.1-2.9-2.1-4.8-3-1.8-.9-3.8-1.6-5.9-2.2-2.1-.5-4.1-.8-6.1-.8-3.3,0-6.4.6-9.3,1.9-2.9,1.2-5.4,2.9-7.5,5.2-2.1,2.2-3.8,4.8-5,7.8-1.2,3-1.8,6.2-1.8,9.7s.6,6.7,1.8,9.7c1.2,3,2.9,5.6,5,7.8,2.1,2.2,4.6,3.9,7.5,5.1,2.9,1.2,5.9,1.9,9.3,1.9s4-.3,6.1-.8c2.1-.6,4.1-1.3,6.1-2.3,1.9-1,3.6-2.1,4.9-3.3l-.2,8.7c-1.5,1-3.3,2-5.3,2.8-2,.8-4,1.4-6.1,1.9-2.1.5-4.1.7-6.1.7Z"/>
  <path class="st4" d="M768.8,360.7v-53.7h-17.1v-7.5h42.4v7.5h-17v53.7h-8.3Z"/>
  <path class="st4" d="M806.8,360.7v-61.2h8.3v61.2h-8.3Z"/>
  <path class="st4" d="M862,362.2c-3.6,0-6.9-.5-10.1-1.6-3.2-1.1-6.1-2.6-8.8-4.5-2.6-2-4.9-4.3-6.9-6.9-1.9-2.7-3.4-5.6-4.5-8.9-1.1-3.2-1.6-6.7-1.6-10.3s.5-7,1.6-10.3c1.1-3.2,2.5-6.2,4.5-8.9,1.9-2.7,4.2-5,6.9-6.9,2.7-2,5.6-3.5,8.8-4.5,3.2-1.1,6.6-1.6,10.1-1.6s7,.5,10.2,1.6c3.2,1.1,6.1,2.6,8.8,4.5,2.7,1.9,4.9,4.3,6.9,6.9,1.9,2.7,3.4,5.6,4.5,8.9,1.1,3.2,1.6,6.7,1.6,10.3s-.5,7-1.6,10.3c-1.1,3.2-2.6,6.2-4.5,8.9-1.9,2.7-4.2,5-6.9,6.9-2.6,1.9-5.6,3.4-8.8,4.5-3.2,1.1-6.6,1.6-10.2,1.6ZM862,354.5c3.3,0,6.4-.6,9.2-1.9,2.9-1.3,5.4-3,7.5-5.2,2.2-2.2,3.8-4.8,5-7.8,1.2-3,1.8-6.2,1.8-9.6s-.6-6.7-1.8-9.6c-1.2-3-2.9-5.6-5-7.8-2.2-2.2-4.7-4-7.5-5.2-2.9-1.3-5.9-1.9-9.2-1.9s-6.4.6-9.2,1.9c-2.8,1.2-5.3,3-7.5,5.2-2.1,2.2-3.8,4.8-5,7.8-1.2,3-1.8,6.2-1.8,9.6s.6,6.7,1.8,9.6c1.2,3,2.9,5.6,5,7.8,2.1,2.2,4.6,4,7.5,5.2,2.8,1.2,5.9,1.9,9.2,1.9Z"/>
  <path class="st4" d="M953.5,299.5h8.3v63h-2.3l-42.1-45.3v43.5s-8.3,0-8.3,0v-62.7h2.3l42.1,45.8v-44.4Z"/>
</svg>