<svg version="1.1" id="Layer_1" xmlns="http://www.w3.org/2000/svg" xmlns:xlink="http://www.w3.org/1999/xlink" x="0px" y="0px"
	 width="100%" viewBox="0 0 1472 832" enable-background="new 0 0 1472 832" xml:space="preserve">
<path fill="#FFFFFF" opacity="1.000000" stroke="none" 
	d="
M1043.000000,833.000000 
	C695.333313,833.000000 348.166656,833.000000 1.000000,833.000000 
	C1.000000,555.666687 1.000000,278.333344 1.000000,1.000000 
	C491.666656,1.000000 982.333313,1.000000 1473.000000,1.000000 
	C1473.000000,278.333344 1473.000000,555.666687 1473.000000,833.000000 
	C1329.833374,833.000000 1186.666626,833.000000 1043.000000,833.000000 
M747.532837,301.681519 
	C746.352783,301.141296 745.108215,300.708557 744.002136,300.044952 
	C722.037354,286.867523 695.383728,298.194305 689.697021,323.142670 
	C686.411926,337.554901 692.176636,353.056335 704.019958,361.657349 
	C715.626160,370.086182 731.498901,370.590332 743.959412,362.755981 
	C745.324829,361.897522 747.004089,360.218872 747.074646,358.845520 
	C747.404358,352.426361 747.221008,345.980835 747.221008,338.661987 
	C744.366638,341.243591 742.043396,343.509369 739.548950,345.567780 
	C733.819946,350.295410 727.311035,352.378693 720.024170,350.169373 
	C712.430908,347.867157 708.084534,342.459290 707.073120,334.648956 
	C705.983459,326.233673 708.322388,318.889069 715.858276,314.362549 
	C722.906006,310.129242 730.255493,310.797577 737.079102,315.278381 
	C740.346741,317.424133 743.304199,320.042419 746.406921,322.450470 
	C746.982788,318.905670 747.492188,315.769928 748.825012,313.112885 
	C754.065613,313.112885 759.306274,313.112885 764.885559,313.112885 
	C764.885559,331.459625 764.885559,349.073578 764.885559,366.649902 
	C770.996216,366.649902 776.746826,366.649902 782.906006,366.649902 
	C782.906006,348.774231 782.906006,331.194824 782.906006,313.044434 
	C788.690613,313.044434 794.078857,313.044434 799.475708,313.044434 
	C799.475708,307.041260 799.475708,301.621338 799.475708,296.152161 
	C782.131775,296.152161 765.067932,296.152161 747.726807,296.152161 
	C747.819946,297.971832 747.895569,299.450226 747.532837,301.681519 
M791.939270,693.141785 
	C792.292664,693.094727 792.646118,693.047607 793.029053,693.807800 
	C795.745483,712.901672 808.635254,721.764465 826.028259,721.867249 
	C836.852844,721.931213 847.701294,722.051575 858.498840,721.439026 
	C869.950195,720.789307 878.678467,715.295837 883.813477,704.704956 
	C884.036255,704.245605 884.630859,703.966553 885.739014,703.011780 
	C885.739014,709.128906 885.739014,714.403870 885.739014,719.569824 
	C912.090393,719.569824 937.984924,719.569824 963.660034,719.569824 
	C963.660034,706.116760 963.660034,693.034241 963.660034,679.558533 
	C952.750854,679.558533 942.143372,679.558533 931.348450,679.558533 
	C931.348450,673.711365 931.348450,668.265747 931.348450,662.227905 
	C941.594116,662.227905 951.645508,662.227905 961.627991,662.227905 
	C961.627991,649.027283 961.627991,636.420593 961.627991,623.361694 
	C951.472473,623.361694 941.549744,623.361694 931.435120,623.361694 
	C931.435120,617.679260 931.435120,612.454895 931.435120,606.709717 
	C942.448853,606.709717 953.172607,606.709717 963.707764,606.709717 
	C963.707764,593.249573 963.707764,580.313965 963.707764,567.233521 
	C937.679443,567.233521 911.912659,567.233521 885.407837,567.233521 
	C885.407837,572.663391 885.407837,577.932068 885.407837,583.200745 
	C879.453491,572.406250 870.866028,565.965088 859.025696,565.330505 
	C846.404846,564.654114 833.698120,564.700806 821.069275,565.293396 
	C807.449097,565.932434 797.419861,574.926392 794.118408,588.095398 
	C793.723206,589.671753 793.255554,591.229980 792.755737,593.033752 
	C790.778198,588.537354 789.545471,584.288818 787.232361,580.745361 
	C780.224182,570.009094 769.359680,567.086121 757.321716,567.068420 
	C738.825867,567.041199 720.330078,567.057068 701.834229,567.071594 
	C700.726196,567.072449 699.618286,567.223389 698.580933,567.299316 
	C698.580933,618.366516 698.580933,669.070984 698.580933,719.654175 
	C713.712524,719.654175 728.473267,719.654175 744.125244,719.654175 
	C744.125244,700.856445 744.125244,682.331360 744.125244,663.806335 
	C744.682678,663.811890 745.240173,663.817444 745.797607,663.822937 
	C745.797607,682.407471 745.797607,700.992004 745.797607,719.592041 
	C761.439270,719.592041 776.302673,719.592041 791.380371,719.592041 
	C791.380371,710.599609 791.380371,701.952393 791.939270,693.141785 
M524.786743,529.499939 
	C524.786743,538.645325 524.786743,547.790771 524.786743,557.134827 
	C542.949768,557.134827 560.730591,557.134827 579.102356,557.134827 
	C579.102356,535.756592 579.102356,514.556702 579.102356,493.468048 
	C591.275696,493.468048 602.855957,493.468048 615.118042,493.468048 
	C615.118042,503.572693 614.606445,513.403931 615.226013,523.163452 
	C616.465698,542.691895 627.445129,557.952698 647.773621,559.113281 
	C665.321350,560.115112 683.054871,559.814697 700.585144,558.488647 
	C712.426636,557.592896 721.522156,550.128418 725.423523,538.714478 
	C728.062439,530.994080 729.569885,522.534363 729.705688,514.374146 
	C730.198853,484.719543 729.932556,455.051697 729.874695,425.389008 
	C729.862976,419.396362 729.774292,413.382080 729.267639,407.416260 
	C727.667969,388.580872 716.044250,375.005402 697.859131,373.564850 
	C680.983154,372.227997 663.896973,372.732117 646.946289,373.445068 
	C636.113098,373.900726 627.413025,379.587158 621.410583,388.870941 
	C620.296387,390.594330 619.358521,392.431702 618.339233,394.216461 
	C618.033386,394.141602 617.727478,394.066742 617.421631,393.991852 
	C617.421631,387.785248 617.421631,381.578613 617.421631,375.336609 
	C586.289124,375.336609 555.701721,375.336609 524.786682,375.336609 
	C524.786682,426.570435 524.786682,477.535156 524.786743,529.499939 
M695.952454,608.503113 
	C695.824646,604.010193 695.928467,599.496582 695.528625,595.028015 
	C693.886780,576.680054 682.783081,565.791016 664.426208,565.096252 
	C652.788635,564.655701 641.116577,564.896973 629.465637,565.123901 
	C621.513794,565.278809 614.439148,568.175903 608.855591,573.899414 
	C606.318848,576.499695 604.462585,579.764038 601.694824,583.552124 
	C601.694824,577.503967 601.694824,572.425598 601.694824,567.328674 
	C575.717346,567.328674 550.152771,567.328674 524.525330,567.328674 
	C524.525330,618.293518 524.525330,668.987793 524.525330,719.725403 
	C539.604858,719.725403 554.368408,719.725403 569.756409,719.725403 
	C569.756409,701.827820 569.756409,684.136169 569.756409,666.172729 
	C579.352539,666.172729 588.325378,666.165100 597.298218,666.189026 
	C597.933289,666.190735 598.567688,666.425293 599.850708,666.680603 
	C599.850708,675.000122 599.459839,683.332397 599.931519,691.615540 
	C600.931030,709.165833 611.903259,720.583862 629.327576,721.489075 
	C642.106018,722.152893 654.988586,722.117615 667.756531,721.312378 
	C680.501709,720.508728 689.725403,713.595459 693.543823,701.180359 
	C695.273438,695.556885 695.791016,689.386169 695.849670,683.453735 
	C696.093201,658.805237 695.952271,634.152893 695.952454,608.503113 
M965.605591,430.501221 
	C965.535034,425.504059 965.675964,420.493378 965.358643,415.511932 
	C963.576172,387.525818 950.295044,375.095245 922.263611,375.067932 
	C900.098511,375.046326 877.933350,375.063568 855.768250,375.063568 
	C854.158569,375.063568 852.548889,375.063568 850.959595,375.063568 
	C850.959595,436.106079 850.959595,496.644196 850.959595,557.343201 
	C876.183777,557.343201 901.009277,557.360046 925.834778,557.338318 
	C949.351074,557.317810 964.457642,543.568481 965.073486,519.978394 
	C965.843018,490.501312 965.479736,460.994720 965.605591,430.501221 
M843.044739,539.576599 
	C844.445618,533.798828 846.856506,528.056274 847.059631,522.236694 
	C847.692810,504.099121 847.593994,485.932343 847.583496,467.777008 
	C847.572083,448.122070 847.755249,428.453278 847.092163,408.816254 
	C846.389282,387.999786 832.875793,374.101013 812.094177,373.065765 
	C796.980286,372.312836 781.780090,372.609680 766.645752,373.172272 
	C755.236633,373.596405 745.273376,378.397827 739.655518,388.611633 
	C736.235229,394.830170 733.505920,402.206085 733.166382,409.193359 
	C732.213074,428.808411 732.562561,448.491608 732.582520,468.147766 
	C732.601624,486.969330 732.398743,505.808258 733.128174,524.607178 
	C733.859070,543.444397 745.806152,557.116882 764.462219,558.925110 
	C780.463074,560.475952 796.730347,560.194458 812.830017,559.525757 
	C826.067139,558.975952 836.712097,552.790405 843.044739,539.576599 
M961.580994,269.903778 
	C946.994934,253.941986 932.408813,237.980179 917.676208,221.858017 
	C934.088379,203.454697 950.178345,185.412750 966.920532,166.639359 
	C955.127014,166.639359 944.489868,166.535080 933.859619,166.757904 
	C932.359070,166.789352 930.585327,168.134048 929.460876,169.353165 
	C923.586975,175.721313 917.894531,182.256500 912.112854,188.710175 
	C909.179993,191.983963 906.192261,195.208511 902.221680,199.559479 
	C902.221680,187.645355 902.221680,177.264587 902.221680,166.887817 
	C892.736267,166.887817 883.801147,166.887817 874.703918,166.887817 
	C874.703918,205.028946 874.703918,242.919327 874.703918,280.797058 
	C884.031616,280.797058 893.081116,280.797058 902.540039,280.797058 
	C902.540039,269.182922 902.540039,257.948883 902.540039,246.714828 
	C902.910400,246.471786 903.280762,246.228745 903.651123,245.985687 
	C904.763794,247.325119 905.830811,248.705734 906.996582,249.997208 
	C915.482849,259.398407 923.967285,268.801514 932.515991,278.145721 
	C933.591797,279.321655 935.022766,280.995148 936.316711,281.020355 
	C947.863159,281.245148 959.415833,281.151306 971.728394,281.151306 
	C968.066711,277.086975 965.064392,273.754517 961.580994,269.903778 
M608.470886,338.951050 
	C611.573242,338.951050 614.675598,338.951050 617.604065,338.951050 
	C617.604065,332.933624 617.604065,327.539246 617.604065,321.800354 
	C609.971924,321.800354 602.704834,321.800354 595.401733,321.800354 
	C595.401733,318.838348 595.401733,316.247559 595.401733,313.167389 
	C603.705505,313.167389 611.792603,313.167389 620.034973,313.167389 
	C620.034973,307.210236 620.034973,301.749237 620.034973,296.063568 
	C605.763489,296.063568 591.680420,296.063568 577.059570,296.063568 
	C577.059570,318.810486 577.059570,341.324158 577.059570,363.837830 
	C576.757019,363.916107 576.454529,363.994415 576.151978,364.072693 
	C570.579956,355.538361 565.007874,347.004059 559.372620,338.372894 
	C560.022766,337.791504 560.487244,337.329803 561.000305,336.930450 
	C561.525024,336.521942 562.133423,336.218018 562.643311,335.793915 
	C569.684875,329.937408 571.518616,322.187897 569.773254,313.692444 
	C568.034790,305.230835 562.830322,298.656952 554.243713,297.265259 
	C544.356995,295.662811 534.172852,295.895569 523.995605,295.324432 
	C523.995605,319.851868 523.995605,343.278381 523.995605,366.583069 
	C530.001160,366.583069 535.735229,366.583069 542.006287,366.583069 
	C542.006287,358.904449 542.006287,351.584137 542.006287,342.910858 
	C547.066589,350.850311 551.225769,357.629547 555.703674,364.191193 
	C556.617615,365.530334 558.723999,366.825256 560.289124,366.835419 
	C585.449524,366.998993 610.611572,366.997986 635.771912,366.831512 
	C637.248901,366.821716 639.777893,365.306244 640.019836,364.123749 
	C642.264709,353.150726 649.086792,349.915802 659.370911,351.938904 
	C659.852173,352.033569 660.479309,351.764404 660.848755,351.983948 
	C662.344482,352.872742 664.373413,353.561310 665.098816,354.916321 
	C667.130920,358.712189 668.613342,362.802307 670.269531,366.675415 
	C676.818420,366.675415 683.196960,366.675415 689.981445,366.675415 
	C679.929565,343.584961 670.135803,320.835724 659.951843,298.262512 
	C659.276123,296.764709 655.673279,296.443665 653.359192,295.866821 
	C650.727539,295.210754 649.694458,296.875122 648.727173,299.133026 
	C640.538147,318.248871 632.220825,337.309784 623.923706,356.379242 
	C623.237061,357.957397 622.415771,359.477020 621.657043,361.023865 
	C621.375977,360.958984 621.094971,360.894104 620.813904,360.829254 
	C620.813904,357.278625 620.813904,353.728027 620.813904,349.674408 
	C612.129822,349.674408 603.867981,349.674408 595.397156,349.674408 
	C595.397156,345.911621 595.397156,342.658661 595.397156,338.951050 
	C599.570862,338.951050 603.529114,338.951050 608.470886,338.951050 
M645.002319,255.456451 
	C655.671326,277.376434 676.499451,287.201843 701.135681,281.936646 
	C721.787842,277.522888 736.387451,259.054504 736.964050,236.042404 
	C737.310364,222.219803 737.090027,208.382828 737.110474,194.552292 
	C737.124023,185.405487 737.112976,176.258667 737.112976,166.919647 
	C727.626526,166.919647 718.529541,166.919647 709.172607,166.919647 
	C709.172607,169.003998 709.173035,170.825790 709.172607,172.647583 
	C709.168396,193.311127 709.271667,213.975479 709.116638,234.637894 
	C709.032593,245.842896 702.976807,253.996933 693.859070,255.942764 
	C680.285217,258.839569 669.164551,249.932770 668.966431,235.399567 
	C668.680298,214.406616 668.868896,193.407181 668.855225,172.410522 
	C668.854065,170.627060 668.855042,168.843597 668.855042,166.983292 
	C659.330505,166.983292 650.267517,166.983292 641.028503,166.983292 
	C641.028503,190.627243 640.786255,213.946335 641.198364,237.253860 
	C641.301819,243.100113 643.506226,248.909225 645.002319,255.456451 
M865.793518,205.702271 
	C866.769836,206.379547 867.746216,207.056839 869.223999,208.082001 
	C869.223999,197.707642 869.337769,188.059097 869.102783,178.419067 
	C869.067078,176.954971 867.756836,174.966568 866.455322,174.172333 
	C848.213440,163.040176 828.883728,160.162628 809.303528,169.550201 
	C772.208862,187.335037 769.236755,228.619141 782.591553,252.925674 
	C799.665100,284.000458 836.682007,292.813751 866.782288,273.151093 
	C867.923645,272.405518 869.481689,271.094879 869.502014,270.022125 
	C869.704712,259.302185 869.625122,248.576920 869.625122,237.586517 
	C865.839050,241.008575 862.404968,244.425873 858.651306,247.445923 
	C847.638672,256.306366 835.398376,260.015320 821.910217,254.014359 
	C809.786926,248.620636 804.329773,238.394485 803.435791,225.429001 
	C802.050842,205.341660 817.815735,189.656219 837.818542,191.141220 
	C849.004211,191.971603 857.295166,198.229904 865.793518,205.702271 
M531.471069,188.970673 
	C516.660889,211.763657 517.107117,239.237976 532.609375,260.030548 
	C545.561890,277.403290 571.739441,291.546967 605.494690,278.350372 
	C607.770996,281.080109 610.101868,283.875336 612.557678,286.820343 
	C620.119690,282.291595 627.499268,277.872101 635.201294,273.259491 
	C632.039062,269.217072 629.101440,265.461761 626.213257,261.769592 
	C645.501099,238.294647 645.344543,197.528641 614.450623,174.620361 
	C593.598877,159.158508 554.239807,157.389862 531.471069,188.970673 
M905.171021,328.499969 
	C905.171021,341.249451 905.171021,353.998932 905.171021,366.574036 
	C911.581116,366.574036 917.312012,366.574036 923.497986,366.574036 
	C923.497986,354.861298 923.497986,343.518951 923.497986,331.112274 
	C934.205566,342.644592 944.438354,353.114685 953.964905,364.192139 
	C957.877258,368.741394 961.980530,369.182800 967.172607,368.324036 
	C967.172607,344.143799 967.172607,320.120209 967.172607,296.105713 
	C961.218750,296.105713 955.621338,296.105713 949.294067,296.105713 
	C949.294067,307.979370 949.294067,319.585114 949.294067,332.408936 
	C938.542847,320.728455 928.517456,310.295105 919.074524,299.358795 
	C915.124084,294.783600 910.909729,293.803040 905.170166,295.169891 
	C905.170166,305.922546 905.170166,316.711243 905.171021,328.499969 
M771.815430,242.500076 
	C771.815430,217.384628 771.815430,192.269196 771.815430,166.909805 
	C762.405518,166.909805 753.322449,166.909805 744.159302,166.909805 
	C744.159302,205.034546 744.159302,242.907837 744.159302,280.779663 
	C753.504944,280.779663 762.536987,280.779663 771.815430,280.779663 
	C771.815430,268.101501 771.815430,255.800797 771.815430,242.500076 
M844.292175,363.175995 
	C869.184998,377.518005 899.175598,360.472717 899.486267,331.636230 
	C899.647827,316.644104 892.823608,305.163696 879.548523,298.440186 
	C867.127747,292.149323 854.209106,292.565308 842.601685,300.623047 
	C820.167114,316.196808 820.858521,347.579071 844.292175,363.175995 
M819.226135,366.934937 
	C819.800720,365.493378 820.864075,364.055450 820.874939,362.609680 
	C820.994141,346.618225 820.949890,330.625549 820.949951,314.633209 
	C820.949951,308.511566 820.950012,302.389893 820.950012,296.107697 
	C814.769958,296.107697 809.046387,296.107697 803.140808,296.107697 
	C803.140808,319.772919 803.140808,343.162537 803.140808,366.942169 
	C808.348206,366.942169 813.309753,366.942169 819.226135,366.934937 
z"/>
<path fill="#101A4B" opacity="1.000000" stroke="none" 
	d="
M791.380371,693.305237 
	C791.380371,701.952393 791.380371,710.599609 791.380371,719.592041 
	C776.302673,719.592041 761.439270,719.592041 745.797607,719.592041 
	C745.797607,700.992004 745.797607,682.407471 745.797607,663.822937 
	C745.240173,663.817444 744.682678,663.811890 744.125244,663.806335 
	C744.125244,682.331360 744.125244,700.856445 744.125244,719.654175 
	C728.473267,719.654175 713.712524,719.654175 698.580933,719.654175 
	C698.580933,669.070984 698.580933,618.366516 698.580933,567.299316 
	C699.618286,567.223389 700.726196,567.072449 701.834229,567.071594 
	C720.330078,567.057068 738.825867,567.041199 757.321716,567.068420 
	C769.359680,567.086121 780.224182,570.009094 787.232361,580.745361 
	C789.545471,584.288818 790.778198,588.537354 792.755737,593.033752 
	C793.255554,591.229980 793.723206,589.671753 794.118408,588.095398 
	C797.419861,574.926392 807.449097,565.932434 821.069275,565.293396 
	C833.698120,564.700806 846.404846,564.654114 859.025696,565.330505 
	C870.866028,565.965088 879.453491,572.406250 885.407837,583.200745 
	C885.407837,577.932068 885.407837,572.663391 885.407837,567.233521 
	C911.912659,567.233521 937.679443,567.233521 963.707764,567.233521 
	C963.707764,580.313965 963.707764,593.249573 963.707764,606.709717 
	C953.172607,606.709717 942.448853,606.709717 931.435120,606.709717 
	C931.435120,612.454895 931.435120,617.679260 931.435120,623.361694 
	C941.549744,623.361694 951.472473,623.361694 961.627991,623.361694 
	C961.627991,636.420593 961.627991,649.027283 961.627991,662.227905 
	C951.645508,662.227905 941.594116,662.227905 931.348450,662.227905 
	C931.348450,668.265747 931.348450,673.711365 931.348450,679.558533 
	C942.143372,679.558533 952.750854,679.558533 963.660034,679.558533 
	C963.660034,693.034241 963.660034,706.116760 963.660034,719.569824 
	C937.984924,719.569824 912.090393,719.569824 885.739014,719.569824 
	C885.739014,714.403870 885.739014,709.128906 885.739014,703.011780 
	C884.630859,703.966553 884.036255,704.245605 883.813477,704.704956 
	C878.678467,715.295837 869.950195,720.789307 858.498840,721.439026 
	C847.701294,722.051575 836.852844,721.931213 826.028259,721.867249 
	C808.635254,721.764465 795.745483,712.901672 793.108276,692.942993 
	C793.104492,683.980652 793.090210,675.881470 792.912170,667.785950 
	C792.807861,663.040466 792.442444,658.300659 792.221863,653.163147 
	C792.249207,645.683411 792.249207,638.598755 792.249207,630.122864 
	C789.890686,634.648926 788.309448,637.683289 787.365967,639.493896 
	C788.837524,644.964172 790.027344,649.386902 791.095947,654.276855 
	C791.110046,667.597778 791.245239,680.451477 791.380371,693.305237 
M735.835999,676.500061 
	C735.835999,669.733643 735.835999,662.967224 735.835999,655.895508 
	C740.274597,655.895508 744.094482,656.095886 747.884277,655.843872 
	C752.428223,655.541626 754.157837,657.354065 754.073364,661.921082 
	C753.873169,672.750671 754.009033,683.586487 754.009033,694.419800 
	C754.009094,700.186707 754.008972,705.953613 754.008972,711.675537 
	C764.192078,711.675537 773.764343,711.675537 783.709961,711.675537 
	C783.709961,694.229126 783.690918,677.093384 783.718323,659.957703 
	C783.731384,651.805359 782.191589,644.450500 773.442688,640.370239 
	C782.522156,635.718933 785.005737,628.113647 785.034363,619.258606 
	C785.055359,612.758972 785.179199,606.253357 784.959534,599.760498 
	C784.420776,583.834595 775.616211,575.157349 759.736267,575.012695 
	C743.737671,574.866882 727.736755,574.968201 711.736877,574.961426 
	C709.964233,574.960632 708.191650,574.961304 706.386719,574.961304 
	C706.386719,620.933411 706.386719,666.325745 706.386719,711.691772 
	C716.294617,711.691772 725.877380,711.691772 735.835938,711.691772 
	C735.835938,700.099060 735.835938,688.799561 735.835999,676.500061 
M800.264954,626.499939 
	C800.264954,633.661621 800.195251,640.824036 800.279358,647.984741 
	C800.457153,663.128845 800.181824,678.304749 801.108521,693.405273 
	C801.854370,705.558167 810.179504,713.260742 822.377808,713.815735 
	C834.010925,714.344971 845.699524,714.281494 857.339905,713.844421 
	C868.523254,713.424561 876.259888,707.324341 878.166260,696.516479 
	C879.761719,687.471313 879.564575,678.109924 880.182861,668.553833 
	C870.020935,668.553833 860.972778,668.553833 851.342712,668.553833 
	C851.342712,672.276550 851.351013,675.730408 851.341370,679.184265 
	C851.295410,695.625916 852.963623,693.820312 836.635803,693.859497 
	C831.055420,693.872925 830.007996,692.768494 830.001282,687.079773 
	C829.979675,668.759399 829.993103,650.439026 829.993225,632.118652 
	C829.993286,620.959900 830.044556,609.800720 829.966614,598.642517 
	C829.938904,594.682861 831.562927,592.757263 835.637634,592.924072 
	C838.796814,593.053467 841.976990,593.121216 845.127136,592.908936 
	C849.660461,592.603394 851.532349,594.568665 851.378296,599.048340 
	C851.214539,603.812744 851.341553,608.587280 851.341553,613.414185 
	C861.100220,613.414185 870.150452,613.414185 879.087036,613.414185 
	C879.087036,606.778442 879.542786,600.453552 878.992371,594.217529 
	C877.839050,581.151001 869.442810,573.357605 856.280701,573.011597 
	C845.463074,572.727173 834.626831,572.737122 823.808350,573.003601 
	C810.573853,573.329468 802.086182,580.910828 801.010376,594.066772 
	C800.157593,604.495056 800.470032,615.018616 800.264954,626.499939 
M893.695435,612.499939 
	C893.695435,645.569458 893.695435,678.639038 893.695435,711.727234 
	C914.834656,711.727234 935.253357,711.727234 955.749878,711.727234 
	C955.749878,703.549438 955.749878,695.634460 955.749878,687.301025 
	C944.839355,687.301025 934.218323,687.301025 923.383789,687.301025 
	C923.383789,676.294983 923.383789,665.712463 923.383789,654.475220 
	C933.621155,654.475220 943.661316,654.475220 953.683960,654.475220 
	C953.683960,646.403503 953.683960,638.989563 953.683960,631.115356 
	C943.474426,631.115356 933.555542,631.115356 923.437134,631.115356 
	C923.437134,620.249939 923.437134,609.852417 923.437134,598.885803 
	C934.426514,598.885803 945.147095,598.885803 955.669067,598.885803 
	C955.669067,590.576233 955.669067,582.841858 955.669067,575.268738 
	C934.860046,575.268738 914.428772,575.268738 893.695312,575.268738 
	C893.695312,587.547485 893.695312,599.523682 893.695435,612.499939 
M852.601929,660.462341 
	C863.514893,660.462341 874.427917,660.462341 885.321350,660.462341 
	C885.321350,647.161865 885.321350,634.627502 885.321350,621.615479 
	C871.207764,621.615479 857.475830,621.615479 843.362427,621.615479 
	C843.362427,614.539124 843.362427,607.939880 843.362427,601.115051 
	C841.419983,601.115051 839.875549,601.115051 838.295471,601.115051 
	C838.295471,629.432983 838.295471,657.489319 838.295471,685.572815 
	C840.020325,685.572815 841.440002,685.572815 843.527832,685.572815 
	C843.527832,677.143188 843.527832,668.941101 843.527832,660.462463 
	C846.678345,660.462463 849.159363,660.462463 852.601929,660.462341 
M792.557800,626.955627 
	C792.452759,627.743469 792.347717,628.531311 792.242676,629.319153 
	C792.423584,629.327759 792.604492,629.336365 792.785400,629.344971 
	C792.785400,628.708374 792.785400,628.071716 792.557800,626.955627 
z"/>
<path fill="#0E1749" opacity="1.000000" stroke="none" 
	d="
M524.786743,528.999878 
	C524.786682,477.535156 524.786682,426.570435 524.786682,375.336609 
	C555.701721,375.336609 586.289124,375.336609 617.421631,375.336609 
	C617.421631,381.578613 617.421631,387.785248 617.421631,393.991852 
	C617.727478,394.066742 618.033386,394.141602 618.339233,394.216461 
	C619.358521,392.431702 620.296387,390.594330 621.410583,388.870941 
	C627.413025,379.587158 636.113098,373.900726 646.946289,373.445068 
	C663.896973,372.732117 680.983154,372.227997 697.859131,373.564850 
	C716.044250,375.005402 727.667969,388.580872 729.267639,407.416260 
	C729.774292,413.382080 729.862976,419.396362 729.874695,425.389008 
	C729.932556,455.051697 730.198853,484.719543 729.705688,514.374146 
	C729.569885,522.534363 728.062439,530.994080 725.423523,538.714478 
	C721.522156,550.128418 712.426636,557.592896 700.585144,558.488647 
	C683.054871,559.814697 665.321350,560.115112 647.773621,559.113281 
	C627.445129,557.952698 616.465698,542.691895 615.226013,523.163452 
	C614.606445,513.403931 615.118042,503.572693 615.118042,493.468048 
	C602.855957,493.468048 591.275696,493.468048 579.102356,493.468048 
	C579.102356,514.556702 579.102356,535.756592 579.102356,557.134827 
	C560.730591,557.134827 542.949768,557.134827 524.786743,557.134827 
	C524.786743,547.790771 524.786743,538.645325 524.786743,528.999878 
M625.018921,527.201416 
	C628.682129,542.599670 636.395813,549.572815 652.055969,550.200623 
	C665.527405,550.740723 679.056641,550.773499 692.525635,550.207153 
	C709.591980,549.489319 719.124695,539.851562 720.032837,522.764954 
	C720.606934,511.962860 720.420776,501.115021 720.405273,490.287964 
	C720.366699,463.465302 720.652405,436.632294 719.983704,409.823975 
	C719.543152,392.159485 708.794922,382.313995 691.237000,382.024078 
	C678.577942,381.815033 665.909790,381.818939 653.250671,382.028168 
	C636.633057,382.302856 627.103149,390.905487 624.765808,407.482330 
	C624.302795,410.765869 624.121643,414.114410 624.116943,417.433380 
	C624.070312,449.923523 624.060974,482.413788 624.125488,514.903870 
	C624.133057,518.718445 624.647888,522.531982 625.018921,527.201416 
M594.476257,483.858307 
	C597.933411,483.858307 601.390625,483.858307 605.107666,483.858307 
	C605.107666,473.771790 605.107666,464.206482 605.107666,453.974304 
	C593.173279,453.974304 581.473755,453.974304 569.824158,453.974304 
	C569.824158,440.698059 569.824158,428.089355 569.824158,414.947266 
	C582.589722,414.947266 595.148560,414.947266 607.684570,414.947266 
	C607.684570,404.513489 607.684570,394.618927 607.684570,384.767944 
	C583.017883,384.767944 558.663574,384.767944 534.451294,384.767944 
	C534.451294,439.403381 534.451294,493.604736 534.451294,547.754883 
	C546.254700,547.754883 557.690308,547.754883 569.625122,547.754883 
	C569.625122,526.458557 569.625122,505.397583 569.625122,483.858276 
	C577.907471,483.858276 585.694458,483.858276 594.476257,483.858307 
M579.177124,444.102753 
	C590.863281,444.102753 602.549500,444.102753 614.489746,444.102753 
	C614.489746,437.900757 614.489746,431.492737 614.489746,424.848114 
	C602.604858,424.848114 590.911499,424.848114 579.025696,424.848114 
	C579.025696,431.190765 579.025696,437.179138 579.177124,444.102753 
z"/>
<path fill="#111A4C" opacity="1.000000" stroke="none" 
	d="
M695.952454,609.002563 
	C695.952271,634.152893 696.093201,658.805237 695.849670,683.453735 
	C695.791016,689.386169 695.273438,695.556885 693.543823,701.180359 
	C689.725403,713.595459 680.501709,720.508728 667.756531,721.312378 
	C654.988586,722.117615 642.106018,722.152893 629.327576,721.489075 
	C611.903259,720.583862 600.931030,709.165833 599.931519,691.615540 
	C599.459839,683.332397 599.850708,675.000122 599.850708,666.680603 
	C598.567688,666.425293 597.933289,666.190735 597.298218,666.189026 
	C588.325378,666.165100 579.352539,666.172729 569.756409,666.172729 
	C569.756409,684.136169 569.756409,701.827820 569.756409,719.725403 
	C554.368408,719.725403 539.604858,719.725403 524.525330,719.725403 
	C524.525330,668.987793 524.525330,618.293518 524.525330,567.328674 
	C550.152771,567.328674 575.717346,567.328674 601.694824,567.328674 
	C601.694824,572.425598 601.694824,577.503967 601.694824,583.552124 
	C604.462585,579.764038 606.318848,576.499695 608.855591,573.899414 
	C614.439148,568.175903 621.513794,565.278809 629.465637,565.123901 
	C641.116577,564.896973 652.788635,564.655701 664.426208,565.096252 
	C682.783081,565.791016 693.886780,576.680054 695.528625,595.028015 
	C695.928467,599.496582 695.824646,604.010193 695.952454,609.002563 
M669.523743,713.303162 
	C679.520142,711.342590 685.480469,705.177307 687.005310,695.287537 
	C687.936890,689.246033 687.965454,683.029114 687.986145,676.889648 
	C688.073730,650.900330 688.138428,624.909546 687.948914,598.921265 
	C687.824036,581.801575 678.965637,573.098755 661.983215,572.906616 
	C653.321045,572.808655 644.656921,572.867249 635.993713,572.883057 
	C615.809631,572.919739 607.563293,581.099854 607.278259,601.347839 
	C607.257141,602.846924 607.270569,604.346558 607.270569,605.845947 
	C607.270203,628.836853 607.224915,651.827881 607.300415,674.818542 
	C607.320618,680.971375 607.355835,687.160522 608.004639,693.267090 
	C609.281738,705.288879 616.757324,713.145081 628.758789,713.708801 
	C642.039368,714.332642 655.381042,713.654663 669.523743,713.303162 
M582.460938,658.097778 
	C585.539856,658.097778 588.618774,658.097778 591.492981,658.097778 
	C591.492981,649.417297 591.492981,641.533630 591.492981,633.247192 
	C581.508301,633.247192 571.918884,633.247192 562.249573,633.247192 
	C562.249573,622.141724 562.249573,611.462463 562.249573,600.443481 
	C572.945068,600.443481 583.228149,600.443481 593.739868,600.443481 
	C593.739868,591.865173 593.739868,583.634949 593.739868,575.264465 
	C573.141296,575.264465 552.773560,575.264465 532.358276,575.264465 
	C532.358276,620.929749 532.358276,666.292419 532.358276,711.730835 
	C542.229553,711.730835 551.806213,711.730835 561.972656,711.730835 
	C561.972656,693.786499 561.972656,676.089417 561.972656,658.097778 
	C568.865540,658.097778 575.169495,658.097778 582.460938,658.097778 
M592.497803,608.547363 
	C585.086487,608.547363 577.675171,608.547363 570.123779,608.547363 
	C570.123779,614.417053 570.123779,619.794678 570.123779,625.105591 
	C579.945129,625.105591 589.462646,625.105591 598.878662,625.105591 
	C598.878662,619.398438 598.878662,614.044983 598.878662,608.547302 
	C596.808899,608.547302 595.153503,608.547302 592.497803,608.547363 
z"/>
<path fill="#0F194A" opacity="1.000000" stroke="none" 
	d="
M965.605591,431.001038 
	C965.479736,460.994720 965.843018,490.501312 965.073486,519.978394 
	C964.457642,543.568481 949.351074,557.317810 925.834778,557.338318 
	C901.009277,557.360046 876.183777,557.343201 850.959595,557.343201 
	C850.959595,496.644196 850.959595,436.106079 850.959595,375.063568 
	C852.548889,375.063568 854.158569,375.063568 855.768250,375.063568 
	C877.933350,375.063568 900.098511,375.046326 922.263611,375.067932 
	C950.295044,375.095245 963.576172,387.525818 965.358643,415.511932 
	C965.675964,420.493378 965.535034,425.504059 965.605591,431.001038 
M890.500183,384.409454 
	C880.422791,384.409454 870.345459,384.409454 860.314575,384.409454 
	C860.314575,439.356598 860.314575,493.578003 860.314575,547.919983 
	C883.162354,547.919983 905.655579,548.260376 928.132935,547.807495 
	C944.779541,547.472107 954.737244,537.167542 955.929260,520.385681 
	C956.129700,517.563416 956.120422,514.722900 956.123718,511.890686 
	C956.141479,496.724609 956.140930,481.558533 956.130310,466.392456 
	C956.118286,449.226654 956.292114,432.057587 956.013245,414.895966 
	C955.697083,395.436462 945.923096,385.361664 926.493347,384.589203 
	C914.844971,384.126068 903.165649,384.442871 890.500183,384.409454 
z"/>
<path fill="#111A4B" opacity="1.000000" stroke="none" 
	d="
M842.909302,539.927734 
	C836.712097,552.790405 826.067139,558.975952 812.830017,559.525757 
	C796.730347,560.194458 780.463074,560.475952 764.462219,558.925110 
	C745.806152,557.116882 733.859070,543.444397 733.128174,524.607178 
	C732.398743,505.808258 732.601624,486.969330 732.582520,468.147766 
	C732.562561,448.491608 732.213074,428.808411 733.166382,409.193359 
	C733.505920,402.206085 736.235229,394.830170 739.655518,388.611633 
	C745.273376,378.397827 755.236633,373.596405 766.645752,373.172272 
	C781.780090,372.609680 796.980286,372.312836 812.094177,373.065765 
	C832.875793,374.101013 846.389282,387.999786 847.092163,408.816254 
	C847.755249,428.453278 847.572083,448.122070 847.583496,467.777008 
	C847.593994,485.932343 847.692810,504.099121 847.059631,522.236694 
	C846.856506,528.056274 844.445618,533.798828 842.909302,539.927734 
M745.474792,535.795410 
	C749.931946,544.926392 757.631165,549.596069 767.394653,549.964111 
	C781.865173,550.509705 796.387634,550.696838 810.851746,550.122681 
	C827.278320,549.470520 836.607605,539.718262 837.912720,523.181458 
	C838.148254,520.197144 838.116882,517.187622 838.119141,514.189636 
	C838.135132,492.696259 838.141907,471.202881 838.122803,449.709503 
	C838.111267,436.714020 838.327759,423.710175 837.938232,410.725220 
	C837.446838,394.344910 828.839539,383.693420 813.341064,382.520386 
	C797.941101,381.354858 782.349060,381.599731 766.909241,382.454285 
	C755.080200,383.109039 746.713440,389.806152 743.684082,401.765961 
	C742.672852,405.758209 742.062439,409.966400 742.047791,414.078674 
	C741.923340,448.900757 741.841614,483.724548 742.121826,518.544800 
	C742.166321,524.073792 744.083191,529.587646 745.474792,535.795410 
z"/>
<path fill="#161E4C" opacity="1.000000" stroke="none" 
	d="
M961.821533,270.162903 
	C965.064392,273.754517 968.066711,277.086975 971.728394,281.151306 
	C959.415833,281.151306 947.863159,281.245148 936.316711,281.020355 
	C935.022766,280.995148 933.591797,279.321655 932.515991,278.145721 
	C923.967285,268.801514 915.482849,259.398407 906.996582,249.997208 
	C905.830811,248.705734 904.763794,247.325119 903.651123,245.985687 
	C903.280762,246.228745 902.910400,246.471786 902.540039,246.714828 
	C902.540039,257.948883 902.540039,269.182922 902.540039,280.797058 
	C893.081116,280.797058 884.031616,280.797058 874.703918,280.797058 
	C874.703918,242.919327 874.703918,205.028946 874.703918,166.887817 
	C883.801147,166.887817 892.736267,166.887817 902.221680,166.887817 
	C902.221680,177.264587 902.221680,187.645355 902.221680,199.559479 
	C906.192261,195.208511 909.179993,191.983963 912.112854,188.710175 
	C917.894531,182.256500 923.586975,175.721313 929.460876,169.353165 
	C930.585327,168.134048 932.359070,166.789352 933.859619,166.757904 
	C944.489868,166.535080 955.127014,166.639359 966.920532,166.639359 
	C950.178345,185.412750 934.088379,203.454697 917.676208,221.858017 
	C932.408813,237.980179 946.994934,253.941986 961.821533,270.162903 
M925.717102,184.223480 
	C915.810242,195.361954 905.903381,206.500443 895.016663,218.740601 
	C895.016663,202.886581 895.016663,188.521896 895.016663,174.238800 
	C890.260071,174.238800 886.052917,174.238800 881.907227,174.238800 
	C881.907227,207.608612 881.907227,240.554214 881.907227,273.662537 
	C886.360657,273.662537 890.581116,273.662537 895.272400,273.662537 
	C895.272400,258.156128 895.272400,242.959915 895.272400,227.763702 
	C897.442932,228.599930 898.515076,230.046005 899.717957,231.373611 
	C911.689453,244.587112 923.667419,257.794830 935.695374,270.956879 
	C936.764038,272.126343 938.145447,273.729309 939.469727,273.818268 
	C944.499268,274.156128 949.565002,273.954376 955.536743,273.954376 
	C939.214111,256.055237 923.646545,238.984161 908.013733,221.841461 
	C922.222778,205.916397 936.140198,190.318130 950.584229,174.129700 
	C941.368713,173.347260 933.105347,172.317017 928.144348,181.429459 
	C927.678894,182.284393 926.838745,182.935303 925.717102,184.223480 
z"/>
<path fill="#171F4D" opacity="1.000000" stroke="none" 
	d="
M607.979126,338.951050 
	C603.529114,338.951050 599.570862,338.951050 595.397156,338.951050 
	C595.397156,342.658661 595.397156,345.911621 595.397156,349.674408 
	C603.867981,349.674408 612.129822,349.674408 620.813904,349.674408 
	C620.813904,353.728027 620.813904,357.278625 620.813904,360.829254 
	C621.094971,360.894104 621.375977,360.958984 621.657043,361.023865 
	C622.415771,359.477020 623.237061,357.957397 623.923706,356.379242 
	C632.220825,337.309784 640.538147,318.248871 648.727173,299.133026 
	C649.694458,296.875122 650.727539,295.210754 653.359192,295.866821 
	C655.673279,296.443665 659.276123,296.764709 659.951843,298.262512 
	C670.135803,320.835724 679.929565,343.584961 689.981445,366.675415 
	C683.196960,366.675415 676.818420,366.675415 670.269531,366.675415 
	C668.613342,362.802307 667.130920,358.712189 665.098816,354.916321 
	C664.373413,353.561310 662.344482,352.872742 660.848755,351.983948 
	C660.479309,351.764404 659.852173,352.033569 659.370911,351.938904 
	C649.086792,349.915802 642.264709,353.150726 640.019836,364.123749 
	C639.777893,365.306244 637.248901,366.821716 635.771912,366.831512 
	C610.611572,366.997986 585.449524,366.998993 560.289124,366.835419 
	C558.723999,366.825256 556.617615,365.530334 555.703674,364.191193 
	C551.225769,357.629547 547.066589,350.850311 542.006287,342.910858 
	C542.006287,351.584137 542.006287,358.904449 542.006287,366.583069 
	C535.735229,366.583069 530.001160,366.583069 523.995605,366.583069 
	C523.995605,343.278381 523.995605,319.851868 523.995605,295.324432 
	C534.172852,295.895569 544.356995,295.662811 554.243713,297.265259 
	C562.830322,298.656952 568.034790,305.230835 569.773254,313.692444 
	C571.518616,322.187897 569.684875,329.937408 562.643311,335.793915 
	C562.133423,336.218018 561.525024,336.521942 561.000305,336.930450 
	C560.487244,337.329803 560.022766,337.791504 559.372620,338.372894 
	C565.007874,347.004059 570.579956,355.538361 576.151978,364.072693 
	C576.454529,363.994415 576.757019,363.916107 577.059570,363.837830 
	C577.059570,341.324158 577.059570,318.810486 577.059570,296.063568 
	C591.680420,296.063568 605.763489,296.063568 620.034973,296.063568 
	C620.034973,301.749237 620.034973,307.210236 620.034973,313.167389 
	C611.792603,313.167389 603.705505,313.167389 595.401733,313.167389 
	C595.401733,316.247559 595.401733,318.838348 595.401733,321.800354 
	C602.704834,321.800354 609.971924,321.800354 617.604065,321.800354 
	C617.604065,327.539246 617.604065,332.933624 617.604065,338.951050 
	C614.675598,338.951050 611.573242,338.951050 607.979126,338.951050 
M562.360229,308.353180 
	C558.646484,306.031433 555.145020,302.291168 551.172791,301.696625 
	C543.919678,300.611084 536.387878,301.387909 528.978394,301.387909 
	C528.978394,321.578125 528.978394,341.614288 528.978394,361.692383 
	C531.716675,361.692383 534.121399,361.692383 536.975464,361.692383 
	C536.975464,353.000305 536.975464,344.586914 536.975464,336.347443 
	C541.604370,334.893768 544.097839,336.581482 546.199707,340.280487 
	C549.480103,346.053345 553.703186,351.311646 556.747009,357.191589 
	C559.482483,362.475861 563.244934,362.675842 568.549133,361.418121 
	C565.605896,356.884308 562.904663,352.736511 560.217163,348.579834 
	C557.436829,344.279663 554.669922,339.970917 551.859253,335.607117 
	C565.058777,330.408691 568.747070,321.178253 562.360229,308.353180 
M631.537598,361.984589 
	C633.833313,362.036591 636.405212,362.525574 636.972595,359.258331 
	C638.945312,347.898163 646.241394,345.074188 656.529236,346.957184 
	C657.012085,347.045563 657.525146,346.968536 658.024170,346.968536 
	C667.247375,346.968536 667.247375,346.968536 670.770508,355.317139 
	C673.871033,362.664215 673.871094,362.664185 682.419800,361.463684 
	C673.854736,341.743073 665.383728,322.133789 656.789307,302.578766 
	C655.662415,300.014618 653.821472,299.928802 652.560425,302.628052 
	C650.804749,306.386017 649.239502,310.232819 647.586609,314.038910 
	C640.725647,329.837524 633.862366,345.635132 626.840088,361.801056 
	C628.461487,361.878326 629.575439,361.931427 631.537598,361.984589 
M609.290771,333.943909 
	C615.791443,334.290741 612.213501,329.917175 612.968628,326.891357 
	C605.147217,326.891357 597.887939,326.891357 590.614990,326.891357 
	C590.614990,320.440308 590.614990,314.411469 590.614990,307.992798 
	C598.989075,307.992798 606.929016,307.992798 614.997192,307.992798 
	C614.997192,305.510315 614.997192,303.438049 614.997192,301.139771 
	C603.995667,301.139771 593.251465,301.139771 582.268799,301.139771 
	C582.268799,321.412018 582.268799,341.476074 582.268799,361.638000 
	C593.539429,361.638000 604.587830,361.638000 615.574402,361.638000 
	C615.574402,359.202118 615.574402,357.114807 615.574402,354.475647 
	C607.037415,354.475647 598.782043,354.475647 590.526489,354.475647 
	C590.526489,347.342316 590.526489,340.774506 590.526489,333.944031 
	C596.692810,333.944031 602.512695,333.944031 609.290771,333.943909 
z"/>
<path fill="#101A4B" opacity="1.000000" stroke="none" 
	d="
M644.873657,255.095932 
	C643.506226,248.909225 641.301819,243.100113 641.198364,237.253860 
	C640.786255,213.946335 641.028503,190.627243 641.028503,166.983292 
	C650.267517,166.983292 659.330505,166.983292 668.855042,166.983292 
	C668.855042,168.843597 668.854065,170.627060 668.855225,172.410522 
	C668.868896,193.407181 668.680298,214.406616 668.966431,235.399567 
	C669.164551,249.932770 680.285217,258.839569 693.859070,255.942764 
	C702.976807,253.996933 709.032593,245.842896 709.116638,234.637894 
	C709.271667,213.975479 709.168396,193.311127 709.172607,172.647583 
	C709.173035,170.825790 709.172607,169.003998 709.172607,166.919647 
	C718.529541,166.919647 727.626526,166.919647 737.112976,166.919647 
	C737.112976,176.258667 737.124023,185.405487 737.110474,194.552292 
	C737.090027,208.382828 737.310364,222.219803 736.964050,236.042404 
	C736.387451,259.054504 721.787842,277.522888 701.135681,281.936646 
	C676.499451,287.201843 655.671326,277.376434 644.873657,255.095932 
M729.960938,189.503128 
	C729.960938,184.383270 729.960938,179.263412 729.960938,174.031036 
	C725.204956,174.031036 720.972290,174.031036 716.261719,174.031036 
	C716.261719,176.127579 716.262024,177.922592 716.261658,179.717590 
	C716.257935,198.043167 716.281982,216.368820 716.239319,234.694305 
	C716.215271,245.022995 712.491455,253.643845 703.611816,259.319763 
	C685.918213,270.629608 662.683899,258.730438 662.003845,237.664276 
	C661.380554,218.358765 661.806702,199.019333 661.771301,179.694855 
	C661.768005,177.901489 661.770874,176.108124 661.770874,174.022232 
	C657.050537,174.022232 652.816956,174.022232 648.530518,174.022232 
	C648.357971,174.613235 648.105835,175.073959 648.105835,175.534698 
	C648.103943,196.358551 647.895874,217.186249 648.246582,238.004486 
	C648.401550,247.202805 651.737366,255.569016 657.942444,262.591431 
	C668.906189,274.999268 687.366455,279.452026 703.725342,273.639252 
	C719.235718,268.128021 729.500366,254.060486 729.847473,236.980148 
	C730.162170,221.492966 729.944092,205.994934 729.960938,189.503128 
z"/>
<path fill="#131C4C" opacity="1.000000" stroke="none" 
	d="
M865.525879,205.465118 
	C857.295166,198.229904 849.004211,191.971603 837.818542,191.141220 
	C817.815735,189.656219 802.050842,205.341660 803.435791,225.429001 
	C804.329773,238.394485 809.786926,248.620636 821.910217,254.014359 
	C835.398376,260.015320 847.638672,256.306366 858.651306,247.445923 
	C862.404968,244.425873 865.839050,241.008575 869.625122,237.586517 
	C869.625122,248.576920 869.704712,259.302185 869.502014,270.022125 
	C869.481689,271.094879 867.923645,272.405518 866.782288,273.151093 
	C836.682007,292.813751 799.665100,284.000458 782.591553,252.925674 
	C769.236755,228.619141 772.208862,187.335037 809.303528,169.550201 
	C828.883728,160.162628 848.213440,163.040176 866.455322,174.172333 
	C867.756836,174.966568 869.067078,176.954971 869.102783,178.419067 
	C869.337769,188.059097 869.223999,197.707642 869.223999,208.082001 
	C867.746216,207.056839 866.769836,206.379547 865.525879,205.465118 
M840.671936,263.307068 
	C825.247192,265.959137 810.003418,258.887939 801.953247,245.346451 
	C793.261475,230.725723 794.014221,210.760803 805.027283,198.016876 
	C821.879211,178.516464 841.570862,180.717133 862.044861,192.767273 
	C862.044861,189.704422 861.751770,187.165756 862.111450,184.723221 
	C862.696655,180.748840 860.945007,178.690796 857.520752,177.066010 
	C846.353760,171.767410 834.865784,169.546112 822.637268,172.481232 
	C796.888428,178.661484 781.549255,200.182327 782.916016,228.272583 
	C784.757874,266.128174 827.195740,288.840851 859.633606,269.275726 
	C860.890625,268.517548 862.372681,267.011658 862.506531,265.724792 
	C862.893066,262.009857 862.643188,258.228699 862.643188,255.304504 
	C855.625122,257.916321 848.572815,260.540924 840.671936,263.307068 
z"/>
<path fill="#131C4C" opacity="1.000000" stroke="none" 
	d="
M531.693604,188.688828 
	C554.239807,157.389862 593.598877,159.158508 614.450623,174.620361 
	C645.344543,197.528641 645.501099,238.294647 626.213257,261.769592 
	C629.101440,265.461761 632.039062,269.217072 635.201294,273.259491 
	C627.499268,277.872101 620.119690,282.291595 612.557678,286.820343 
	C610.101868,283.875336 607.770996,281.080109 605.494690,278.350372 
	C571.739441,291.546967 545.561890,277.403290 532.609375,260.030548 
	C517.107117,239.237976 516.660889,211.763657 531.693604,188.688828 
M551.523743,268.055847 
	C569.766418,279.219696 588.295166,278.713562 607.167114,269.223572 
	C609.543762,271.982483 611.883606,274.698669 614.260559,277.457916 
	C617.885620,275.250366 621.072632,273.309631 624.462280,271.245422 
	C621.665344,267.652283 619.261902,264.564575 616.928162,261.566528 
	C618.786133,259.276428 620.429688,257.395111 621.915649,255.396545 
	C635.892517,236.597778 635.461731,209.485672 620.918091,190.758987 
	C606.963135,172.790283 581.790588,166.052643 560.174377,175.017319 
	C541.323303,182.835205 530.574158,197.485275 528.360962,217.532425 
	C526.066528,238.314514 533.625549,255.357422 551.523743,268.055847 
z"/>
<path fill="#141D4C" opacity="1.000000" stroke="none" 
	d="
M905.170593,327.999939 
	C905.170166,316.711243 905.170166,305.922546 905.170166,295.169891 
	C910.909729,293.803040 915.124084,294.783600 919.074524,299.358795 
	C928.517456,310.295105 938.542847,320.728455 949.294067,332.408936 
	C949.294067,319.585114 949.294067,307.979370 949.294067,296.105713 
	C955.621338,296.105713 961.218750,296.105713 967.172607,296.105713 
	C967.172607,320.120209 967.172607,344.143799 967.172607,368.324036 
	C961.980530,369.182800 957.877258,368.741394 953.964905,364.192139 
	C944.438354,353.114685 934.205566,342.644592 923.497986,331.112274 
	C923.497986,343.518951 923.497986,354.861298 923.497986,366.574036 
	C917.312012,366.574036 911.581116,366.574036 905.171021,366.574036 
	C905.171021,353.998932 905.171021,341.249451 905.170593,327.999939 
M934.054504,335.445740 
	C943.120178,345.121796 952.185852,354.797852 961.251526,364.473907 
	C961.672607,364.147003 962.093689,363.820129 962.514771,363.493225 
	C962.514771,342.788666 962.514771,322.084076 962.514771,301.254730 
	C959.753479,301.254730 957.224365,301.254730 954.162964,301.254730 
	C954.162964,315.624420 954.162964,329.633331 954.162964,344.803894 
	C939.416321,328.792450 925.500732,313.683441 911.585205,298.574402 
	C911.162842,298.912903 910.740417,299.251434 910.318054,299.589935 
	C910.318054,320.285522 910.318054,340.981140 910.318054,361.723999 
	C913.020203,361.723999 915.434326,361.723999 918.254639,361.723999 
	C918.254639,347.585815 918.254639,333.709839 918.254639,318.509399 
	C923.924194,324.586487 928.747925,329.756927 934.054504,335.445740 
z"/>
<path fill="#0E184A" opacity="1.000000" stroke="none" 
	d="
M771.815430,243.000092 
	C771.815430,255.800797 771.815430,268.101501 771.815430,280.779663 
	C762.536987,280.779663 753.504944,280.779663 744.159302,280.779663 
	C744.159302,242.907837 744.159302,205.034546 744.159302,166.909805 
	C753.322449,166.909805 762.405518,166.909805 771.815430,166.909805 
	C771.815430,192.269196 771.815430,217.384628 771.815430,243.000092 
M761.263855,274.000397 
	C765.490051,274.692841 764.739868,271.690063 764.740356,269.286285 
	C764.746826,238.984665 764.748169,208.683044 764.733276,178.381424 
	C764.732605,176.947556 764.567932,175.513748 764.480957,174.101837 
	C759.784363,174.101837 755.546570,174.101837 751.234131,174.101837 
	C751.234131,207.476471 751.234131,240.530746 751.234131,274.000641 
	C754.417053,274.000641 757.372070,274.000641 761.263855,274.000397 
z"/>
<path fill="#19214E" opacity="1.000000" stroke="none" 
	d="
M748.001587,312.634216 
	C747.492188,315.769928 746.982788,318.905670 746.406921,322.450470 
	C743.304199,320.042419 740.346741,317.424133 737.079102,315.278381 
	C730.255493,310.797577 722.906006,310.129242 715.858276,314.362549 
	C708.322388,318.889069 705.983459,326.233673 707.073120,334.648956 
	C708.084534,342.459290 712.430908,347.867157 720.024170,350.169373 
	C727.311035,352.378693 733.819946,350.295410 739.548950,345.567780 
	C742.043396,343.509369 744.366638,341.243591 747.221008,338.661987 
	C747.221008,345.980835 747.404358,352.426361 747.074646,358.845520 
	C747.004089,360.218872 745.324829,361.897522 743.959412,362.755981 
	C731.498901,370.590332 715.626160,370.086182 704.019958,361.657349 
	C692.176636,353.056335 686.411926,337.554901 689.697021,323.142670 
	C695.383728,298.194305 722.037354,286.867523 744.002136,300.044952 
	C745.108215,300.708557 746.352783,301.141296 747.766663,301.765381 
	C748.000854,305.444214 748.001221,309.039215 748.001587,312.634216 
M707.924316,304.314697 
	C706.626770,305.357056 705.279053,306.343262 704.039551,307.450592 
	C693.003296,317.309601 690.397827,335.252106 698.105469,348.150421 
	C706.031555,361.414307 721.615662,366.706360 736.259094,361.106689 
	C742.845398,358.588074 743.369812,357.570862 741.723389,350.508087 
	C727.992371,357.916901 716.504089,357.228333 708.438232,348.513153 
	C700.750549,340.206696 699.435425,326.235870 706.395569,317.168427 
	C709.276489,313.415192 713.642151,310.196655 718.013245,308.322479 
	C726.275452,304.779968 734.201233,307.872314 741.694458,312.153992 
	C742.486572,303.893005 742.443298,303.757843 735.406921,301.243652 
	C726.045959,297.898956 717.092957,298.895996 707.924316,304.314697 
z"/>
<path fill="#171F4C" opacity="1.000000" stroke="none" 
	d="
M748.413330,312.873535 
	C748.001221,309.039215 748.000854,305.444214 747.985840,301.388916 
	C747.895569,299.450226 747.819946,297.971832 747.726807,296.152161 
	C765.067932,296.152161 782.131775,296.152161 799.475708,296.152161 
	C799.475708,301.621338 799.475708,307.041260 799.475708,313.044434 
	C794.078857,313.044434 788.690613,313.044434 782.906006,313.044434 
	C782.906006,331.194824 782.906006,348.774231 782.906006,366.649902 
	C776.746826,366.649902 770.996216,366.649902 764.885559,366.649902 
	C764.885559,349.073578 764.885559,331.459625 764.885559,313.112885 
	C759.306274,313.112885 754.065613,313.112885 748.413330,312.873535 
M793.185608,300.935089 
	C779.770325,300.935089 766.355042,300.935089 753.013672,300.935089 
	C753.013672,303.642609 753.013672,305.715820 753.013672,308.371277 
	C758.709534,308.371277 764.094971,308.371277 769.900940,308.371277 
	C769.900940,326.509094 769.900940,344.061401 769.900940,361.709015 
	C772.759399,361.709015 775.159302,361.709015 778.133911,361.709015 
	C778.133911,343.774139 778.133911,326.096832 778.133911,308.032959 
	C783.963379,308.032959 789.222656,308.032959 795.173340,308.032959 
	C794.772156,305.404968 794.441528,303.239288 793.185608,300.935089 
z"/>
<path fill="#19214E" opacity="1.000000" stroke="none" 
	d="
M843.963135,363.016479 
	C820.858521,347.579071 820.167114,316.196808 842.601685,300.623047 
	C854.209106,292.565308 867.127747,292.149323 879.548523,298.440186 
	C892.823608,305.163696 899.647827,316.644104 899.486267,331.636230 
	C899.175598,360.472717 869.184998,377.518005 843.963135,363.016479 
M844.613525,305.011932 
	C843.848083,305.651367 843.076782,306.283844 842.318115,306.931152 
	C830.438171,317.066467 827.622742,334.709564 835.743835,348.116455 
	C843.831421,361.468048 860.299866,366.949280 874.856262,361.134491 
	C892.193298,354.208893 899.778198,333.641144 891.268677,316.628998 
	C882.807251,299.713226 862.437073,294.385834 844.613525,305.011932 
z"/>
<path fill="#131C4A" opacity="1.000000" stroke="none" 
	d="
M818.748657,366.938538 
	C813.309753,366.942169 808.348206,366.942169 803.140808,366.942169 
	C803.140808,343.162537 803.140808,319.772919 803.140808,296.107697 
	C809.046387,296.107697 814.769958,296.107697 820.950012,296.107697 
	C820.950012,302.389893 820.949951,308.511566 820.949951,314.633209 
	C820.949890,330.625549 820.994141,346.618225 820.874939,362.609680 
	C820.864075,364.055450 819.800720,365.493378 818.748657,366.938538 
M807.879761,334.500000 
	C807.879761,343.589355 807.879761,352.678711 807.879761,361.657227 
	C810.977844,361.657227 813.384888,361.657227 815.701660,361.657227 
	C815.701660,341.262360 815.701660,321.191711 815.701660,301.240356 
	C812.959534,301.240356 810.550476,301.240356 807.879761,301.240356 
	C807.879761,312.217377 807.879761,322.858704 807.879761,334.500000 
z"/>
<path fill="#767B98" opacity="1.000000" stroke="none" 
	d="
M792.194519,653.558289 
	C792.442444,658.300659 792.807861,663.040466 792.912170,667.785950 
	C793.090210,675.881470 793.104492,683.980652 793.093506,692.539429 
	C792.646118,693.047607 792.292664,693.094727 791.659790,693.223511 
	C791.245239,680.451477 791.110046,667.597778 791.257202,654.205566 
	C791.539551,653.667175 791.845459,653.483948 791.845459,653.483948 
	C791.845459,653.483948 792.194519,653.558289 792.194519,653.558289 
z"/>
<path fill="#FCD45D" opacity="1.000000" stroke="none" 
	d="
M735.835938,677.000061 
	C735.835938,688.799561 735.835938,700.099060 735.835938,711.691772 
	C725.877380,711.691772 716.294617,711.691772 706.386719,711.691772 
	C706.386719,666.325745 706.386719,620.933411 706.386719,574.961304 
	C708.191650,574.961304 709.964233,574.960632 711.736877,574.961426 
	C727.736755,574.968201 743.737671,574.866882 759.736267,575.012695 
	C775.616211,575.157349 784.420776,583.834595 784.959534,599.760498 
	C785.179199,606.253357 785.055359,612.758972 785.034363,619.258606 
	C785.005737,628.113647 782.522156,635.718933 773.442688,640.370239 
	C782.191589,644.450500 783.731384,651.805359 783.718323,659.957703 
	C783.690918,677.093384 783.709961,694.229126 783.709961,711.675537 
	C773.764343,711.675537 764.192078,711.675537 754.008972,711.675537 
	C754.008972,705.953613 754.009094,700.186707 754.009033,694.419800 
	C754.009033,683.586487 753.873169,672.750671 754.073364,661.921082 
	C754.157837,657.354065 752.428223,655.541626 747.884277,655.843872 
	C744.094482,656.095886 740.274597,655.895508 735.835999,655.895508 
	C735.835999,662.967224 735.835999,669.733643 735.835938,677.000061 
M752.826843,595.334290 
	C747.246826,595.334290 741.666748,595.334290 736.191895,595.334290 
	C736.191895,608.700867 736.191895,621.745422 736.191895,635.043579 
	C740.674011,635.043579 744.826965,634.832825 748.949158,635.098633 
	C753.732910,635.407104 755.552734,633.382263 755.466858,628.693909 
	C755.299377,619.546631 755.515015,610.392212 755.334961,601.245361 
	C755.299255,599.430115 754.199463,597.635803 752.826843,595.334290 
z"/>
<path fill="#FAD35D" opacity="1.000000" stroke="none" 
	d="
M800.265015,625.999878 
	C800.470032,615.018616 800.157593,604.495056 801.010376,594.066772 
	C802.086182,580.910828 810.573853,573.329468 823.808350,573.003601 
	C834.626831,572.737122 845.463074,572.727173 856.280701,573.011597 
	C869.442810,573.357605 877.839050,581.151001 878.992371,594.217529 
	C879.542786,600.453552 879.087036,606.778442 879.087036,613.414185 
	C870.150452,613.414185 861.100220,613.414185 851.341553,613.414185 
	C851.341553,608.587280 851.214539,603.812744 851.378296,599.048340 
	C851.532349,594.568665 849.660461,592.603394 845.127136,592.908936 
	C841.976990,593.121216 838.796814,593.053467 835.637634,592.924072 
	C831.562927,592.757263 829.938904,594.682861 829.966614,598.642517 
	C830.044556,609.800720 829.993286,620.959900 829.993225,632.118652 
	C829.993103,650.439026 829.979675,668.759399 830.001282,687.079773 
	C830.007996,692.768494 831.055420,693.872925 836.635803,693.859497 
	C852.963623,693.820312 851.295410,695.625916 851.341370,679.184265 
	C851.351013,675.730408 851.342712,672.276550 851.342712,668.553833 
	C860.972778,668.553833 870.020935,668.553833 880.182861,668.553833 
	C879.564575,678.109924 879.761719,687.471313 878.166260,696.516479 
	C876.259888,707.324341 868.523254,713.424561 857.339905,713.844421 
	C845.699524,714.281494 834.010925,714.344971 822.377808,713.815735 
	C810.179504,713.260742 801.854370,705.558167 801.108521,693.405273 
	C800.181824,678.304749 800.457153,663.128845 800.279358,647.984741 
	C800.195251,640.824036 800.264954,633.661621 800.265015,625.999878 
z"/>
<path fill="#FDD55D" opacity="1.000000" stroke="none" 
	d="
M893.695374,611.999878 
	C893.695312,599.523682 893.695312,587.547485 893.695312,575.268738 
	C914.428772,575.268738 934.860046,575.268738 955.669067,575.268738 
	C955.669067,582.841858 955.669067,590.576233 955.669067,598.885803 
	C945.147095,598.885803 934.426514,598.885803 923.437134,598.885803 
	C923.437134,609.852417 923.437134,620.249939 923.437134,631.115356 
	C933.555542,631.115356 943.474426,631.115356 953.683960,631.115356 
	C953.683960,638.989563 953.683960,646.403503 953.683960,654.475220 
	C943.661316,654.475220 933.621155,654.475220 923.383789,654.475220 
	C923.383789,665.712463 923.383789,676.294983 923.383789,687.301025 
	C934.218323,687.301025 944.839355,687.301025 955.749878,687.301025 
	C955.749878,695.634460 955.749878,703.549438 955.749878,711.727234 
	C935.253357,711.727234 914.834656,711.727234 893.695435,711.727234 
	C893.695435,678.639038 893.695435,645.569458 893.695374,611.999878 
z"/>
<path fill="#FDFDFE" opacity="1.000000" stroke="none" 
	d="
M852.121155,660.462402 
	C849.159363,660.462463 846.678345,660.462463 843.527832,660.462463 
	C843.527832,668.941101 843.527832,677.143188 843.527832,685.572815 
	C841.440002,685.572815 840.020325,685.572815 838.295471,685.572815 
	C838.295471,657.489319 838.295471,629.432983 838.295471,601.115051 
	C839.875549,601.115051 841.419983,601.115051 843.362427,601.115051 
	C843.362427,607.939880 843.362427,614.539124 843.362427,621.615479 
	C857.475830,621.615479 871.207764,621.615479 885.321350,621.615479 
	C885.321350,634.627502 885.321350,647.161865 885.321350,660.462341 
	C874.427917,660.462341 863.514893,660.462341 852.121155,660.462402 
z"/>
<path fill="#F9FAFB" opacity="1.000000" stroke="none" 
	d="
M792.221863,653.163147 
	C792.194519,653.558289 791.845459,653.483948 791.845459,653.483948 
	C791.845459,653.483948 791.539551,653.667175 791.378296,653.738403 
	C790.027344,649.386902 788.837524,644.964172 787.365967,639.493896 
	C788.309448,637.683289 789.890686,634.648926 792.249207,630.122864 
	C792.249207,638.598755 792.249207,645.683411 792.221863,653.163147 
z"/>
<path fill="#767B98" opacity="1.000000" stroke="none" 
	d="
M792.671631,627.195374 
	C792.785400,628.071716 792.785400,628.708374 792.785400,629.344971 
	C792.604492,629.336365 792.423584,629.327759 792.242676,629.319153 
	C792.347717,628.531311 792.452759,627.743469 792.671631,627.195374 
z"/>
<path fill="#FCD45D" opacity="1.000000" stroke="none" 
	d="
M624.973267,526.773682 
	C624.647888,522.531982 624.133057,518.718445 624.125488,514.903870 
	C624.060974,482.413788 624.070312,449.923523 624.116943,417.433380 
	C624.121643,414.114410 624.302795,410.765869 624.765808,407.482330 
	C627.103149,390.905487 636.633057,382.302856 653.250671,382.028168 
	C665.909790,381.818939 678.577942,381.815033 691.237000,382.024078 
	C708.794922,382.313995 719.543152,392.159485 719.983704,409.823975 
	C720.652405,436.632294 720.366699,463.465302 720.405273,490.287964 
	C720.420776,501.115021 720.606934,511.962860 720.032837,522.764954 
	C719.124695,539.851562 709.591980,549.489319 692.525635,550.207153 
	C679.056641,550.773499 665.527405,550.740723 652.055969,550.200623 
	C636.395813,549.572815 628.682129,542.599670 624.973267,526.773682 
M659.614990,489.499878 
	C659.615112,498.660614 659.610962,507.821381 659.616394,516.982117 
	C659.621582,525.722229 660.043762,526.153137 668.533936,526.157715 
	C672.031677,526.159607 675.531372,526.081482 679.026672,526.173950 
	C683.273071,526.286133 685.130920,524.184631 685.037964,520.080811 
	C685.019104,519.248413 685.037231,518.415283 685.037231,517.582458 
	C685.037415,483.271332 685.039124,448.960175 685.036133,414.649048 
	C685.035400,406.604340 684.357117,405.948700 676.124023,405.943848 
	C673.292542,405.942200 670.460999,405.938202 667.629517,405.944794 
	C660.473572,405.961426 659.625977,406.787140 659.621277,414.048004 
	C659.605347,438.865295 659.614868,463.682556 659.614990,489.499878 
z"/>
<path fill="#FBD35D" opacity="1.000000" stroke="none" 
	d="
M593.978882,483.858276 
	C585.694458,483.858276 577.907471,483.858276 569.625122,483.858276 
	C569.625122,505.397583 569.625122,526.458557 569.625122,547.754883 
	C557.690308,547.754883 546.254700,547.754883 534.451294,547.754883 
	C534.451294,493.604736 534.451294,439.403381 534.451294,384.767944 
	C558.663574,384.767944 583.017883,384.767944 607.684570,384.767944 
	C607.684570,394.618927 607.684570,404.513489 607.684570,414.947266 
	C595.148560,414.947266 582.589722,414.947266 569.824158,414.947266 
	C569.824158,428.089355 569.824158,440.698059 569.824158,453.974304 
	C581.473755,453.974304 593.173279,453.974304 605.107666,453.974304 
	C605.107666,464.206482 605.107666,473.771790 605.107666,483.858307 
	C601.390625,483.858307 597.933411,483.858307 593.978882,483.858276 
z"/>
<path fill="#F9FAFB" opacity="1.000000" stroke="none" 
	d="
M579.101440,443.635132 
	C579.025696,437.179138 579.025696,431.190765 579.025696,424.848114 
	C590.911499,424.848114 602.604858,424.848114 614.489746,424.848114 
	C614.489746,431.492737 614.489746,437.900757 614.489746,444.102753 
	C602.549500,444.102753 590.863281,444.102753 579.101440,443.635132 
z"/>
<path fill="#FBD45D" opacity="1.000000" stroke="none" 
	d="
M669.109924,713.423401 
	C655.381042,713.654663 642.039368,714.332642 628.758789,713.708801 
	C616.757324,713.145081 609.281738,705.288879 608.004639,693.267090 
	C607.355835,687.160522 607.320618,680.971375 607.300415,674.818542 
	C607.224915,651.827881 607.270203,628.836853 607.270569,605.845947 
	C607.270569,604.346558 607.257141,602.846924 607.278259,601.347839 
	C607.563293,581.099854 615.809631,572.919739 635.993713,572.883057 
	C644.656921,572.867249 653.321045,572.808655 661.983215,572.906616 
	C678.965637,573.098755 687.824036,581.801575 687.948914,598.921265 
	C688.138428,624.909546 688.073730,650.900330 687.986145,676.889648 
	C687.965454,683.029114 687.936890,689.246033 687.005310,695.287537 
	C685.480469,705.177307 679.520142,711.342590 669.109924,713.423401 
M636.991577,680.464417 
	C636.940002,694.890930 635.815430,693.941467 650.477844,693.876282 
	C650.644165,693.875549 650.810547,693.876587 650.976868,693.875916 
	C657.671936,693.848450 658.336182,693.201050 658.339661,686.351990 
	C658.353027,659.902161 658.354004,633.452393 658.342407,607.002563 
	C658.335388,590.966370 659.698425,593.048462 644.131714,592.958191 
	C637.645081,592.920593 636.998291,593.601990 636.995789,600.127014 
	C636.985474,626.576843 636.991516,653.026611 636.991577,680.464417 
z"/>
<path fill="#FBD45D" opacity="1.000000" stroke="none" 
	d="
M581.967163,658.097778 
	C575.169495,658.097778 568.865540,658.097778 561.972656,658.097778 
	C561.972656,676.089417 561.972656,693.786499 561.972656,711.730835 
	C551.806213,711.730835 542.229553,711.730835 532.358276,711.730835 
	C532.358276,666.292419 532.358276,620.929749 532.358276,575.264465 
	C552.773560,575.264465 573.141296,575.264465 593.739868,575.264465 
	C593.739868,583.634949 593.739868,591.865173 593.739868,600.443481 
	C583.228149,600.443481 572.945068,600.443481 562.249573,600.443481 
	C562.249573,611.462463 562.249573,622.141724 562.249573,633.247192 
	C571.918884,633.247192 581.508301,633.247192 591.492981,633.247192 
	C591.492981,641.533630 591.492981,649.417297 591.492981,658.097778 
	C588.618774,658.097778 585.539856,658.097778 581.967163,658.097778 
z"/>
<path fill="#FFFFFF" opacity="1.000000" stroke="none" 
	d="
M592.997925,608.547363 
	C595.153503,608.547302 596.808899,608.547302 598.878662,608.547302 
	C598.878662,614.044983 598.878662,619.398438 598.878662,625.105591 
	C589.462646,625.105591 579.945129,625.105591 570.123779,625.105591 
	C570.123779,619.794678 570.123779,614.417053 570.123779,608.547363 
	C577.675171,608.547363 585.086487,608.547363 592.997925,608.547363 
z"/>
<path fill="#FDD55D" opacity="1.000000" stroke="none" 
	d="
M891.000244,384.409302 
	C903.165649,384.442871 914.844971,384.126068 926.493347,384.589203 
	C945.923096,385.361664 955.697083,395.436462 956.013245,414.895966 
	C956.292114,432.057587 956.118286,449.226654 956.130310,466.392456 
	C956.140930,481.558533 956.141479,496.724609 956.123718,511.890686 
	C956.120422,514.722900 956.129700,517.563416 955.929260,520.385681 
	C954.737244,537.167542 944.779541,547.472107 928.132935,547.807495 
	C905.655579,548.260376 883.162354,547.919983 860.314575,547.919983 
	C860.314575,493.578003 860.314575,439.356598 860.314575,384.409454 
	C870.345459,384.409454 880.422791,384.409454 891.000244,384.409302 
M901.640503,523.843201 
	C904.972046,523.843201 908.303528,523.844666 911.635071,523.842957 
	C919.930847,523.838684 920.922607,522.875916 920.927490,514.793640 
	C920.932312,506.964569 920.928650,499.135498 920.928589,491.306427 
	C920.928345,466.153473 920.916626,441.000488 920.942322,415.847534 
	C920.945557,412.698364 920.784973,409.032959 917.083740,408.757233 
	C909.890137,408.221313 902.628296,408.600311 895.488708,408.600311 
	C895.488708,447.239899 895.488708,485.313171 895.488708,523.843140 
	C897.431152,523.843140 899.059509,523.843140 901.640503,523.843201 
z"/>
<path fill="#FDD55D" opacity="1.000000" stroke="none" 
	d="
M745.304565,535.451965 
	C744.083191,529.587646 742.166321,524.073792 742.121826,518.544800 
	C741.841614,483.724548 741.923340,448.900757 742.047791,414.078674 
	C742.062439,409.966400 742.672852,405.758209 743.684082,401.765961 
	C746.713440,389.806152 755.080200,383.109039 766.909241,382.454285 
	C782.349060,381.599731 797.941101,381.354858 813.341064,382.520386 
	C828.839539,383.693420 837.446838,394.344910 837.938232,410.725220 
	C838.327759,423.710175 838.111267,436.714020 838.122803,449.709503 
	C838.141907,471.202881 838.135132,492.696259 838.119141,514.189636 
	C838.116882,517.187622 838.148254,520.197144 837.912720,523.181458 
	C836.607605,539.718262 827.278320,549.470520 810.851746,550.122681 
	C796.387634,550.696838 781.865173,550.509705 767.394653,549.964111 
	C757.631165,549.596069 749.931946,544.926392 745.304565,535.451965 
M777.175415,433.500000 
	C777.175415,440.657074 777.175415,447.814178 777.175476,454.971252 
	C777.175598,476.109589 777.162537,497.247955 777.183838,518.386292 
	C777.190430,524.955078 778.452942,526.163269 785.088318,526.189026 
	C788.250671,526.201294 791.413147,526.196289 794.575562,526.190125 
	C801.954895,526.175659 802.919250,525.228271 802.921387,517.852722 
	C802.929382,490.223083 802.924683,462.593414 802.924561,434.963776 
	C802.924561,427.473816 802.892273,419.983643 802.935120,412.493927 
	C802.960876,407.980377 801.002747,405.700989 796.288330,405.882233 
	C792.133423,406.041931 787.962463,406.043091 783.807617,405.881897 
	C779.066040,405.697937 777.155762,408.059662 777.171204,412.526825 
	C777.194153,419.184479 777.176086,425.842285 777.175415,433.500000 
z"/>
<path fill="#FCD45D" opacity="1.000000" stroke="none" 
	d="
M925.944824,183.952209 
	C926.838745,182.935303 927.678894,182.284393 928.144348,181.429459 
	C933.105347,172.317017 941.368713,173.347260 950.584229,174.129700 
	C936.140198,190.318130 922.222778,205.916397 908.013733,221.841461 
	C923.646545,238.984161 939.214111,256.055237 955.536743,273.954376 
	C949.565002,273.954376 944.499268,274.156128 939.469727,273.818268 
	C938.145447,273.729309 936.764038,272.126343 935.695374,270.956879 
	C923.667419,257.794830 911.689453,244.587112 899.717957,231.373611 
	C898.515076,230.046005 897.442932,228.599930 895.272400,227.763702 
	C895.272400,242.959915 895.272400,258.156128 895.272400,273.662537 
	C890.581116,273.662537 886.360657,273.662537 881.907227,273.662537 
	C881.907227,240.554214 881.907227,207.608612 881.907227,174.238800 
	C886.052917,174.238800 890.260071,174.238800 895.016663,174.238800 
	C895.016663,188.521896 895.016663,202.886581 895.016663,218.740601 
	C905.903381,206.500443 915.810242,195.361954 925.944824,183.952209 
z"/>
<path fill="#F8D15C" opacity="1.000000" stroke="none" 
	d="
M562.580444,308.662903 
	C568.747070,321.178253 565.058777,330.408691 551.859253,335.607117 
	C554.669922,339.970917 557.436829,344.279663 560.217163,348.579834 
	C562.904663,352.736511 565.605896,356.884308 568.549133,361.418121 
	C563.244934,362.675842 559.482483,362.475861 556.747009,357.191589 
	C553.703186,351.311646 549.480103,346.053345 546.199707,340.280487 
	C544.097839,336.581482 541.604370,334.893768 536.975464,336.347443 
	C536.975464,344.586914 536.975464,353.000305 536.975464,361.692383 
	C534.121399,361.692383 531.716675,361.692383 528.978394,361.692383 
	C528.978394,341.614288 528.978394,321.578125 528.978394,301.387909 
	C536.387878,301.387909 543.919678,300.611084 551.172791,301.696625 
	C555.145020,302.291168 558.646484,306.031433 562.580444,308.662903 
M544.357788,329.109772 
	C545.189514,329.093994 546.023865,329.114532 546.852600,329.056671 
	C553.552002,328.589050 557.423584,324.907196 557.530884,318.921051 
	C557.642334,312.707489 553.607483,308.460663 546.962402,308.056580 
	C543.707581,307.858643 540.430786,308.022308 537.206665,308.022308 
	C537.206665,315.334290 537.206665,322.065704 537.206665,329.110443 
	C539.479736,329.110443 541.449402,329.110443 544.357788,329.109772 
z"/>
<path fill="#F7D05C" opacity="1.000000" stroke="none" 
	d="
M631.113525,361.984558 
	C629.575439,361.931427 628.461487,361.878326 626.840088,361.801056 
	C633.862366,345.635132 640.725647,329.837524 647.586609,314.038910 
	C649.239502,310.232819 650.804749,306.386017 652.560425,302.628052 
	C653.821472,299.928802 655.662415,300.014618 656.789307,302.578766 
	C665.383728,322.133789 673.854736,341.743073 682.419800,361.463684 
	C673.871094,362.664185 673.871033,362.664215 670.770508,355.317139 
	C667.247375,346.968536 667.247375,346.968536 658.024170,346.968536 
	C657.525146,346.968536 657.012085,347.045563 656.529236,346.957184 
	C646.241394,345.074188 638.945312,347.898163 636.972595,359.258331 
	C636.405212,362.525574 633.833313,362.036591 631.113525,361.984558 
M659.630493,328.881348 
	C658.059875,325.282959 656.489319,321.684540 654.619690,317.401062 
	C651.325073,325.317627 648.365479,332.429321 645.237549,339.945404 
	C651.888611,339.945404 657.775146,339.945404 664.148376,339.945404 
	C662.643921,336.255951 661.284912,332.923126 659.630493,328.881348 
z"/>
<path fill="#FDD55D" opacity="1.000000" stroke="none" 
	d="
M608.811646,333.943970 
	C602.512695,333.944031 596.692810,333.944031 590.526489,333.944031 
	C590.526489,340.774506 590.526489,347.342316 590.526489,354.475647 
	C598.782043,354.475647 607.037415,354.475647 615.574402,354.475647 
	C615.574402,357.114807 615.574402,359.202118 615.574402,361.638000 
	C604.587830,361.638000 593.539429,361.638000 582.268799,361.638000 
	C582.268799,341.476074 582.268799,321.412018 582.268799,301.139771 
	C593.251465,301.139771 603.995667,301.139771 614.997192,301.139771 
	C614.997192,303.438049 614.997192,305.510315 614.997192,307.992798 
	C606.929016,307.992798 598.989075,307.992798 590.614990,307.992798 
	C590.614990,314.411469 590.614990,320.440308 590.614990,326.891357 
	C597.887939,326.891357 605.147217,326.891357 612.968628,326.891357 
	C612.213501,329.917175 615.791443,334.290741 608.811646,333.943970 
z"/>
<path fill="#F8D15C" opacity="1.000000" stroke="none" 
	d="
M729.960938,190.002411 
	C729.944092,205.994934 730.162170,221.492966 729.847473,236.980148 
	C729.500366,254.060486 719.235718,268.128021 703.725342,273.639252 
	C687.366455,279.452026 668.906189,274.999268 657.942444,262.591431 
	C651.737366,255.569016 648.401550,247.202805 648.246582,238.004486 
	C647.895874,217.186249 648.103943,196.358551 648.105835,175.534698 
	C648.105835,175.073959 648.357971,174.613235 648.530518,174.022232 
	C652.816956,174.022232 657.050537,174.022232 661.770874,174.022232 
	C661.770874,176.108124 661.768005,177.901489 661.771301,179.694855 
	C661.806702,199.019333 661.380554,218.358765 662.003845,237.664276 
	C662.683899,258.730438 685.918213,270.629608 703.611816,259.319763 
	C712.491455,253.643845 716.215271,245.022995 716.239319,234.694305 
	C716.281982,216.368820 716.257935,198.043167 716.261658,179.717590 
	C716.262024,177.922592 716.261719,176.127579 716.261719,174.031036 
	C720.972290,174.031036 725.204956,174.031036 729.960938,174.031036 
	C729.960938,179.263412 729.960938,184.383270 729.960938,190.002411 
z"/>
<path fill="#F9D25D" opacity="1.000000" stroke="none" 
	d="
M841.096191,263.236267 
	C848.572815,260.540924 855.625122,257.916321 862.643188,255.304504 
	C862.643188,258.228699 862.893066,262.009857 862.506531,265.724792 
	C862.372681,267.011658 860.890625,268.517548 859.633606,269.275726 
	C827.195740,288.840851 784.757874,266.128174 782.916016,228.272583 
	C781.549255,200.182327 796.888428,178.661484 822.637268,172.481232 
	C834.865784,169.546112 846.353760,171.767410 857.520752,177.066010 
	C860.945007,178.690796 862.696655,180.748840 862.111450,184.723221 
	C861.751770,187.165756 862.044861,189.704422 862.044861,192.767273 
	C841.570862,180.717133 821.879211,178.516464 805.027283,198.016876 
	C794.014221,210.760803 793.261475,230.725723 801.953247,245.346451 
	C810.003418,258.887939 825.247192,265.959137 841.096191,263.236267 
z"/>
<path fill="#FAD25D" opacity="1.000000" stroke="none" 
	d="
M551.208435,267.876373 
	C533.625549,255.357422 526.066528,238.314514 528.360962,217.532425 
	C530.574158,197.485275 541.323303,182.835205 560.174377,175.017319 
	C581.790588,166.052643 606.963135,172.790283 620.918091,190.758987 
	C635.461731,209.485672 635.892517,236.597778 621.915649,255.396545 
	C620.429688,257.395111 618.786133,259.276428 616.928162,261.566528 
	C619.261902,264.564575 621.665344,267.652283 624.462280,271.245422 
	C621.072632,273.309631 617.885620,275.250366 614.260559,277.457916 
	C611.883606,274.698669 609.543762,271.982483 607.167114,269.223572 
	C588.295166,278.713562 569.766418,279.219696 551.208435,267.876373 
M590.682068,248.865311 
	C589.844238,247.724564 589.006348,246.583817 588.054626,245.288101 
	C591.459290,242.966980 594.577881,240.840866 597.915527,238.565445 
	C601.522766,242.888397 604.893982,246.928589 608.294922,251.004303 
	C622.726013,234.743652 621.735718,208.916840 606.366577,194.227921 
	C591.567261,180.083618 568.188110,180.131943 553.598999,194.337006 
	C538.148499,209.380783 537.620728,235.853745 552.194153,251.776108 
	C565.402405,266.206909 588.044617,266.843597 598.356995,258.280731 
	C595.945007,255.330780 593.529602,252.376724 590.682068,248.865311 
z"/>
<path fill="#F5CF5C" opacity="1.000000" stroke="none" 
	d="
M933.813110,335.186584 
	C928.747925,329.756927 923.924194,324.586487 918.254639,318.509399 
	C918.254639,333.709839 918.254639,347.585815 918.254639,361.723999 
	C915.434326,361.723999 913.020203,361.723999 910.318054,361.723999 
	C910.318054,340.981140 910.318054,320.285522 910.318054,299.589935 
	C910.740417,299.251434 911.162842,298.912903 911.585205,298.574402 
	C925.500732,313.683441 939.416321,328.792450 954.162964,344.803894 
	C954.162964,329.633331 954.162964,315.624420 954.162964,301.254730 
	C957.224365,301.254730 959.753479,301.254730 962.514771,301.254730 
	C962.514771,322.084076 962.514771,342.788666 962.514771,363.493225 
	C962.093689,363.820129 961.672607,364.147003 961.251526,364.473907 
	C952.185852,354.797852 943.120178,345.121796 933.813110,335.186584 
z"/>
<path fill="#F8D15C" opacity="1.000000" stroke="none" 
	d="
M760.795532,274.000519 
	C757.372070,274.000641 754.417053,274.000641 751.234131,274.000641 
	C751.234131,240.530746 751.234131,207.476471 751.234131,174.101837 
	C755.546570,174.101837 759.784363,174.101837 764.480957,174.101837 
	C764.567932,175.513748 764.732605,176.947556 764.733276,178.381424 
	C764.748169,208.683044 764.746826,238.984665 764.740356,269.286285 
	C764.739868,271.690063 765.490051,274.692841 760.795532,274.000519 
z"/>
<path fill="#F7D05C" opacity="1.000000" stroke="none" 
	d="
M708.244629,304.134094 
	C717.092957,298.895996 726.045959,297.898956 735.406921,301.243652 
	C742.443298,303.757843 742.486572,303.893005 741.694458,312.153992 
	C734.201233,307.872314 726.275452,304.779968 718.013245,308.322479 
	C713.642151,310.196655 709.276489,313.415192 706.395569,317.168427 
	C699.435425,326.235870 700.750549,340.206696 708.438232,348.513153 
	C716.504089,357.228333 727.992371,357.916901 741.723389,350.508087 
	C743.369812,357.570862 742.845398,358.588074 736.259094,361.106689 
	C721.615662,366.706360 706.031555,361.414307 698.105469,348.150421 
	C690.397827,335.252106 693.003296,317.309601 704.039551,307.450592 
	C705.279053,306.343262 706.626770,305.357056 708.244629,304.134094 
z"/>
<path fill="#FDD55D" opacity="1.000000" stroke="none" 
	d="
M793.648315,301.004333 
	C794.441528,303.239288 794.772156,305.404968 795.173340,308.032959 
	C789.222656,308.032959 783.963379,308.032959 778.133911,308.032959 
	C778.133911,326.096832 778.133911,343.774139 778.133911,361.709015 
	C775.159302,361.709015 772.759399,361.709015 769.900940,361.709015 
	C769.900940,344.061401 769.900940,326.509094 769.900940,308.371277 
	C764.094971,308.371277 758.709534,308.371277 753.013672,308.371277 
	C753.013672,305.715820 753.013672,303.642609 753.013672,300.935089 
	C766.355042,300.935089 779.770325,300.935089 793.648315,301.004333 
z"/>
<path fill="#F6D05C" opacity="1.000000" stroke="none" 
	d="
M844.903992,304.795654 
	C862.437073,294.385834 882.807251,299.713226 891.268677,316.628998 
	C899.778198,333.641144 892.193298,354.208893 874.856262,361.134491 
	C860.299866,366.949280 843.831421,361.468048 835.743835,348.116455 
	C827.622742,334.709564 830.438171,317.066467 842.318115,306.931152 
	C843.076782,306.283844 843.848083,305.651367 844.903992,304.795654 
M849.278625,351.324982 
	C850.122742,351.853455 850.939758,352.432526 851.815186,352.902557 
	C861.344482,358.018768 873.041138,356.076843 880.081116,348.227081 
	C887.546021,339.903351 888.465210,326.515259 882.209656,317.222198 
	C876.226318,308.333527 865.011169,304.664612 854.951050,308.304810 
	C837.675964,314.555756 834.249695,337.909119 849.278625,351.324982 
z"/>
<path fill="#FDD55D" opacity="1.000000" stroke="none" 
	d="
M807.879761,334.000000 
	C807.879761,322.858704 807.879761,312.217377 807.879761,301.240356 
	C810.550476,301.240356 812.959534,301.240356 815.701660,301.240356 
	C815.701660,321.191711 815.701660,341.262360 815.701660,361.657227 
	C813.384888,361.657227 810.977844,361.657227 807.879761,361.657227 
	C807.879761,352.678711 807.879761,343.589355 807.879761,334.000000 
z"/>
<path fill="#0C1649" opacity="1.000000" stroke="none" 
	d="
M753.208618,595.583130 
	C754.199463,597.635803 755.299255,599.430115 755.334961,601.245361 
	C755.515015,610.392212 755.299377,619.546631 755.466858,628.693909 
	C755.552734,633.382263 753.732910,635.407104 748.949158,635.098633 
	C744.826965,634.832825 740.674011,635.043579 736.191895,635.043579 
	C736.191895,621.745422 736.191895,608.700867 736.191895,595.334290 
	C741.666748,595.334290 747.246826,595.334290 753.208618,595.583130 
M743.749329,604.219971 
	C743.749329,611.794434 743.749329,619.368896 743.749329,626.943298 
	C744.224243,627.221985 744.699219,627.500671 745.174133,627.779297 
	C745.997803,626.731995 747.502625,625.705139 747.534851,624.634155 
	C747.747986,617.541016 747.645081,610.438354 747.645081,602.958496 
	C746.142578,603.127930 745.050232,603.251099 743.749329,604.219971 
z"/>
<path fill="#091347" opacity="1.000000" stroke="none" 
	d="
M659.614868,488.999878 
	C659.614868,463.682556 659.605347,438.865295 659.621277,414.048004 
	C659.625977,406.787140 660.473572,405.961426 667.629517,405.944794 
	C670.460999,405.938202 673.292542,405.942200 676.124023,405.943848 
	C684.357117,405.948700 685.035400,406.604340 685.036133,414.649048 
	C685.039124,448.960175 685.037415,483.271332 685.037231,517.582458 
	C685.037231,518.415283 685.019104,519.248413 685.037964,520.080811 
	C685.130920,524.184631 683.273071,526.286133 679.026672,526.173950 
	C675.531372,526.081482 672.031677,526.159607 668.533936,526.157715 
	C660.043762,526.153137 659.621582,525.722229 659.616394,516.982117 
	C659.610962,507.821381 659.615112,498.660614 659.614868,488.999878 
M668.980591,473.500000 
	C668.980591,487.916443 668.980591,502.332916 668.980591,516.960510 
	C671.596802,516.833069 673.502930,516.740234 675.391907,516.648254 
	C675.391907,482.562836 675.391907,449.015106 675.391907,415.394958 
	C673.163025,415.394958 671.255066,415.394958 668.980591,415.394958 
	C668.980591,434.606964 668.980591,453.553497 668.980591,473.500000 
z"/>
<path fill="#101A4C" opacity="1.000000" stroke="none" 
	d="
M636.991577,679.970459 
	C636.991516,653.026611 636.985474,626.576843 636.995789,600.127014 
	C636.998291,593.601990 637.645081,592.920593 644.131714,592.958191 
	C659.698425,593.048462 658.335388,590.966370 658.342407,607.002563 
	C658.354004,633.452393 658.353027,659.902161 658.339661,686.351990 
	C658.336182,693.201050 657.671936,693.848450 650.976868,693.875916 
	C650.810547,693.876587 650.644165,693.875549 650.477844,693.876282 
	C635.815430,693.941467 636.940002,694.890930 636.991577,679.970459 
M650.382935,656.500183 
	C650.382935,638.090698 650.382935,619.681274 650.382935,601.165649 
	C648.324524,601.165649 646.788940,601.165649 645.305786,601.165649 
	C645.305786,629.501709 645.305786,657.530579 645.305786,685.560913 
	C647.042969,685.560913 648.457947,685.560913 650.382996,685.560913 
	C650.382996,676.046936 650.382996,666.773621 650.382935,656.500183 
z"/>
<path fill="#161E4C" opacity="1.000000" stroke="none" 
	d="
M901.164185,523.843140 
	C899.059509,523.843140 897.431152,523.843140 895.488708,523.843140 
	C895.488708,485.313171 895.488708,447.239899 895.488708,408.600311 
	C902.628296,408.600311 909.890137,408.221313 917.083740,408.757233 
	C920.784973,409.032959 920.945557,412.698364 920.942322,415.847534 
	C920.916626,441.000488 920.928345,466.153473 920.928589,491.306427 
	C920.928650,499.135498 920.932312,506.964569 920.927490,514.793640 
	C920.922607,522.875916 919.930847,523.838684 911.635071,523.842957 
	C908.303528,523.844666 904.972046,523.843201 901.164185,523.843140 
M911.222229,458.500061 
	C911.222229,445.096863 911.222229,431.693665 911.222229,418.386871 
	C908.732666,418.386871 906.861206,418.386871 905.172241,418.386871 
	C905.172241,450.454071 905.172241,482.155731 905.172241,513.750000 
	C907.344299,513.750000 909.219971,513.750000 911.222290,513.750000 
	C911.222290,495.412262 911.222290,477.456177 911.222229,458.500061 
z"/>
<path fill="#141D4C" opacity="1.000000" stroke="none" 
	d="
M777.175415,433.000000 
	C777.176086,425.842285 777.194153,419.184479 777.171204,412.526825 
	C777.155762,408.059662 779.066040,405.697937 783.807617,405.881897 
	C787.962463,406.043091 792.133423,406.041931 796.288330,405.882233 
	C801.002747,405.700989 802.960876,407.980377 802.935120,412.493927 
	C802.892273,419.983643 802.924561,427.473816 802.924561,434.963776 
	C802.924683,462.593414 802.929382,490.223083 802.921387,517.852722 
	C802.919250,525.228271 801.954895,526.175659 794.575562,526.190125 
	C791.413147,526.196289 788.250671,526.201294 785.088318,526.189026 
	C778.452942,526.163269 777.190430,524.955078 777.183838,518.386292 
	C777.162537,497.247955 777.175598,476.109589 777.175476,454.971252 
	C777.175415,447.814178 777.175415,440.657074 777.175415,433.000000 
M786.880981,501.495911 
	C786.880981,506.577026 786.880981,511.658112 786.880981,516.892944 
	C789.475220,516.770386 791.230652,516.687378 792.885437,516.609192 
	C792.885437,482.572296 792.885437,449.029144 792.885437,415.448608 
	C790.791809,415.448608 789.046387,415.448608 786.880981,415.448608 
	C786.880981,443.968689 786.880981,472.233215 786.880981,501.495911 
z"/>
<path fill="#111A4B" opacity="1.000000" stroke="none" 
	d="
M543.888428,329.110107 
	C541.449402,329.110443 539.479736,329.110443 537.206665,329.110443 
	C537.206665,322.065704 537.206665,315.334290 537.206665,308.022308 
	C540.430786,308.022308 543.707581,307.858643 546.962402,308.056580 
	C553.607483,308.460663 557.642334,312.707489 557.530884,318.921051 
	C557.423584,324.907196 553.552002,328.589050 546.852600,329.056671 
	C546.023865,329.114532 545.189514,329.093994 543.888428,329.110107 
M551.289062,315.062744 
	C548.352478,314.167694 545.415894,313.272614 542.214966,312.296967 
	C542.214966,317.020020 542.214966,320.531372 542.214966,324.022339 
	C551.591553,324.325989 553.442017,322.643280 551.289062,315.062744 
z"/>
<path fill="#161E4C" opacity="1.000000" stroke="none" 
	d="
M659.778198,329.235840 
	C661.284912,332.923126 662.643921,336.255951 664.148376,339.945404 
	C657.775146,339.945404 651.888611,339.945404 645.237549,339.945404 
	C648.365479,332.429321 651.325073,325.317627 654.619690,317.401062 
	C656.489319,321.684540 658.059875,325.282959 659.778198,329.235840 
z"/>
<path fill="#111A4A" opacity="1.000000" stroke="none" 
	d="
M590.898132,249.143982 
	C593.529602,252.376724 595.945007,255.330780 598.356995,258.280731 
	C588.044617,266.843597 565.402405,266.206909 552.194153,251.776108 
	C537.620728,235.853745 538.148499,209.380783 553.598999,194.337006 
	C568.188110,180.131943 591.567261,180.083618 606.366577,194.227921 
	C621.735718,208.916840 622.726013,234.743652 608.294922,251.004303 
	C604.893982,246.928589 601.522766,242.888397 597.915527,238.565445 
	C594.577881,240.840866 591.459290,242.966980 588.054626,245.288101 
	C589.006348,246.583817 589.844238,247.724564 590.898132,249.143982 
M583.464417,256.516418 
	C584.411072,256.297607 585.357666,256.078827 586.739563,255.759430 
	C583.524902,251.684967 580.515503,247.870590 577.379944,243.896378 
	C584.983704,238.661499 592.078369,233.777130 599.302856,228.803345 
	C602.134033,232.200439 604.809265,235.410461 607.607605,238.768158 
	C610.833374,232.669617 611.699280,227.252380 610.957764,218.950058 
	C609.312866,200.534698 590.253174,186.978836 572.567688,191.645996 
	C556.687622,195.836685 546.750183,211.712769 549.153931,229.052078 
	C551.475769,245.801239 565.502502,257.318542 583.464417,256.516418 
z"/>
<path fill="#161E4C" opacity="1.000000" stroke="none" 
	d="
M848.992188,351.098816 
	C834.249695,337.909119 837.675964,314.555756 854.951050,308.304810 
	C865.011169,304.664612 876.226318,308.333527 882.209656,317.222198 
	C888.465210,326.515259 887.546021,339.903351 880.081116,348.227081 
	C873.041138,356.076843 861.344482,358.018768 851.815186,352.902557 
	C850.939758,352.432526 850.122742,351.853455 848.992188,351.098816 
M876.110046,317.402802 
	C875.069885,316.577942 874.087463,315.664429 872.980164,314.942596 
	C865.658691,310.169983 856.996826,310.895111 850.527344,316.775787 
	C844.155945,322.567261 842.561768,333.260803 846.906006,341.067352 
	C851.245728,348.865784 859.072388,352.217377 867.521851,350.177612 
	C881.605164,346.777832 885.749390,327.824677 876.110046,317.402802 
z"/>
<path fill="#E1E3E9" opacity="1.000000" stroke="none" 
	d="
M743.853638,603.797119 
	C745.050232,603.251099 746.142578,603.127930 747.645081,602.958496 
	C747.645081,610.438354 747.747986,617.541016 747.534851,624.634155 
	C747.502625,625.705139 745.997803,626.731995 745.174133,627.779297 
	C744.699219,627.500671 744.224243,627.221985 743.749329,626.943298 
	C743.749329,619.368896 743.749329,611.794434 743.853638,603.797119 
z"/>
<path fill="#EFEFF3" opacity="1.000000" stroke="none" 
	d="
M668.980591,473.000000 
	C668.980591,453.553497 668.980591,434.606964 668.980591,415.394958 
	C671.255066,415.394958 673.163025,415.394958 675.391907,415.394958 
	C675.391907,449.015106 675.391907,482.562836 675.391907,516.648254 
	C673.502930,516.740234 671.596802,516.833069 668.980591,516.960510 
	C668.980591,502.332916 668.980591,487.916443 668.980591,473.000000 
z"/>
<path fill="#FFFFFF" opacity="1.000000" stroke="none" 
	d="
M650.382935,657.000244 
	C650.382996,666.773621 650.382996,676.046936 650.382996,685.560913 
	C648.457947,685.560913 647.042969,685.560913 645.305786,685.560913 
	C645.305786,657.530579 645.305786,629.501709 645.305786,601.165649 
	C646.788940,601.165649 648.324524,601.165649 650.382935,601.165649 
	C650.382935,619.681274 650.382935,638.090698 650.382935,657.000244 
z"/>
<path fill="#FFFFFF" opacity="1.000000" stroke="none" 
	d="
M911.222290,459.000092 
	C911.222290,477.456177 911.222290,495.412262 911.222290,513.750000 
	C909.219971,513.750000 907.344299,513.750000 905.172241,513.750000 
	C905.172241,482.155731 905.172241,450.454071 905.172241,418.386871 
	C906.861206,418.386871 908.732666,418.386871 911.222229,418.386871 
	C911.222229,431.693665 911.222229,445.096863 911.222290,459.000092 
z"/>
<path fill="#FDFDFE" opacity="1.000000" stroke="none" 
	d="
M786.880981,500.996826 
	C786.880981,472.233215 786.880981,443.968689 786.880981,415.448608 
	C789.046387,415.448608 790.791809,415.448608 792.885437,415.448608 
	C792.885437,449.029144 792.885437,482.572296 792.885437,516.609192 
	C791.230652,516.687378 789.475220,516.770386 786.880981,516.892944 
	C786.880981,511.658112 786.880981,506.577026 786.880981,500.996826 
z"/>
<path fill="#F9FAFB" opacity="1.000000" stroke="none" 
	d="
M551.535278,315.360840 
	C553.442017,322.643280 551.591553,324.325989 542.214966,324.022339 
	C542.214966,320.531372 542.214966,317.020020 542.214966,312.296967 
	C545.415894,313.272614 548.352478,314.167694 551.535278,315.360840 
z"/>
<path fill="#FDFDFD" opacity="1.000000" stroke="none" 
	d="
M583.085815,256.559509 
	C565.502502,257.318542 551.475769,245.801239 549.153931,229.052078 
	C546.750183,211.712769 556.687622,195.836685 572.567688,191.645996 
	C590.253174,186.978836 609.312866,200.534698 610.957764,218.950058 
	C611.699280,227.252380 610.833374,232.669617 607.607605,238.768158 
	C604.809265,235.410461 602.134033,232.200439 599.302856,228.803345 
	C592.078369,233.777130 584.983704,238.661499 577.379944,243.896378 
	C580.515503,247.870590 583.524902,251.684967 586.739563,255.759430 
	C585.357666,256.078827 584.411072,256.297607 583.085815,256.559509 
z"/>
<path fill="#FCFCFD" opacity="1.000000" stroke="none" 
	d="
M876.362610,317.672791 
	C885.749390,327.824677 881.605164,346.777832 867.521851,350.177612 
	C859.072388,352.217377 851.245728,348.865784 846.906006,341.067352 
	C842.561768,333.260803 844.155945,322.567261 850.527344,316.775787 
	C856.996826,310.895111 865.658691,310.169983 872.980164,314.942596 
	C874.087463,315.664429 875.069885,316.577942 876.362610,317.672791 
z"/>
</svg>